<svg width="742" height="156" viewBox="0 0 742 156" fill="none" xmlns="http://www.w3.org/2000/svg">
<g clip-path="url(#clip0_749_11278)">
<path d="M77.2916 152.64C118.236 152.64 151.429 119.182 151.429 77.9098C151.429 36.6376 118.236 3.17983 77.2916 3.17983C36.3469 3.17983 3.15471 36.6376 3.15471 77.9098C3.15471 119.182 36.3469 152.64 77.2916 152.64Z" fill="white"/>
<path d="M68.1428 34.9802C67.8273 34.3442 67.1963 34.0262 66.5654 34.0262C66.2499 34.0262 65.9344 34.0262 65.3035 34.3442C61.2023 37.5242 55.5237 51.5162 50.7916 69.6422H54.8928C63.0951 69.6422 71.2975 69.9602 79.4999 69.9602C77.2916 61.6922 75.3987 54.3782 73.5059 48.6542C70.982 40.3862 69.0892 36.8882 68.1428 34.9802Z" fill="black"/>
<path d="M77.2917 0C34.7024 0 0 34.98 0 77.91C0 120.84 34.7024 155.82 77.2917 155.82C119.881 155.82 154.583 120.84 154.583 77.91C154.583 34.98 119.881 0 77.2917 0ZM132.815 79.182C132.815 79.5 132.815 79.5 132.815 79.182L132.5 79.5H132.185C131.554 79.818 130.923 79.818 130.292 79.818H93.6964C94.0119 81.09 94.3274 82.362 94.6428 83.952C96.5357 92.538 101.899 115.752 107.577 115.752C111.994 115.752 114.202 109.392 119.25 95.082C120.196 92.856 120.827 90.312 121.774 87.45L122.089 86.814C122.405 85.86 123.351 85.542 124.298 85.86C124.929 86.178 125.56 86.814 125.56 87.45C125.56 87.768 125.56 87.768 125.56 88.086L125.244 88.722C124.613 90.312 124.298 92.538 123.667 95.4C120.827 107.802 116.095 126.246 104.738 126.246C97.4821 126.246 93.0655 114.162 91.1726 109.074C87.7024 99.534 84.8631 89.358 82.3393 79.5H48.8988L41.9583 102.078C41.0119 103.668 38.8036 104.304 36.9107 103.032C35.9643 102.396 35.3333 101.124 35.3333 100.17L35.6488 97.626C36.5952 91.902 37.8571 85.86 39.119 79.818H24.9226C22.3988 79.5 20.506 77.274 20.506 74.412C20.506 71.868 22.3988 69.642 24.9226 69.006C25.5536 69.006 26.1845 69.006 26.5 69.006H27.131C31.5476 69.006 36.5952 69.006 41.6429 69.324C49.2143 38.796 57.7321 23.532 67.1964 23.532C77.2917 23.532 85.1786 47.064 91.1726 69.96C103.792 70.278 117.042 70.596 129.976 71.55H130.607C130.923 71.55 130.923 71.55 131.238 71.55C133.446 71.868 135.024 74.094 134.393 76.32C134.077 77.91 133.762 78.864 132.815 79.182Z" fill="black"/>
<path d="M197.488 97.3078L191.494 112.572H173.512L207.268 32.7538H223.042L256.798 112.572H239.131L233.137 97.3078H197.488ZM215.155 53.1058L203.482 82.0438H227.143L215.155 53.1058Z" fill="black"/>
<path d="M357.434 82.0439V112.572H341.345V83.3159C341.345 74.4119 336.928 69.6419 329.673 69.6419C326.202 69.6419 322.732 71.2319 319.262 75.6839C319.577 77.5919 319.577 79.8179 319.577 81.7259V112.254H303.488V82.9979C303.488 74.0939 299.071 69.3239 291.5 69.3239C288.345 69.3239 284.875 71.2319 281.72 75.6839V112.254H265.631V56.9219H281.72V60.4199C285.19 57.2399 288.976 55.3319 295.286 55.3319C302.226 55.3319 308.536 58.1939 312.952 63.2819C318.946 57.8759 324.309 55.3319 333.143 55.3319C346.708 55.0139 357.434 65.8259 357.434 82.0439Z" fill="black"/>
<path d="M427.786 84.9059C427.786 101.124 415.482 113.844 400.339 113.844C394.03 113.844 388.982 112.254 384.565 109.392V139.602H368.476V56.9219H384.565V60.1019C388.982 57.2399 394.03 55.6499 400.339 55.6499C415.798 55.6499 427.786 68.3699 427.786 84.9059ZM412.012 84.9059C412.012 76.6379 406.018 69.3239 397.815 69.3239C393.083 69.3239 388.351 70.9139 384.881 76.0019V93.8099C388.351 98.5799 393.083 100.17 397.815 100.17C406.018 100.17 412.012 92.8559 412.012 84.9059Z" fill="black"/>
<path d="M453.024 112.573H436.934V29.8925H453.024V112.573Z" fill="black"/>
<path d="M467.536 37.206C467.536 31.8 471.952 27.666 477.315 27.666C482.679 27.666 486.78 31.8 486.78 37.206C486.78 42.612 482.363 46.428 477.315 46.428C471.637 46.428 467.536 42.612 467.536 37.206ZM485.202 56.922V112.89H469.113V56.922H485.202Z" fill="black"/>
<path d="M543.565 111.936C536.94 114.162 533.786 114.48 528.738 114.48C515.172 114.48 506.655 104.94 506.655 90.6298V70.5958H494.982V56.9218H506.655V36.8878H522.744V56.9218H542.619V70.5958H522.744V90.3118C522.744 96.6718 526.53 99.5338 532.524 99.5338C535.678 99.5338 538.833 98.8978 541.988 97.9438L543.565 111.936Z" fill="black"/>
<path d="M608.238 112.572H592.149V108.756C587.732 112.254 582.684 114.48 576.375 114.48C561.863 114.48 552.083 103.986 552.083 87.7683V56.9223H568.173V86.1783C568.173 95.0823 572.589 99.8523 580.161 99.8523C584.262 99.8523 588.678 97.3083 592.149 92.8563V56.9223H608.238V112.572Z" fill="black"/>
<path d="M676.381 112.572H660.292V109.392C655.875 112.255 650.827 113.844 644.518 113.844C629.375 113.844 616.756 101.125 616.756 84.5885C616.756 68.3705 629.059 55.6505 644.518 55.6505C650.827 55.6505 655.875 57.2405 660.292 60.1025V29.8925H676.381V112.572ZM660.292 93.8105V76.0025C656.821 71.2325 652.089 69.6425 647.357 69.6425C638.839 69.6425 633.161 76.6385 633.161 84.9065C633.161 93.1745 639.155 100.488 647.357 100.488C652.089 100.17 656.821 98.5805 660.292 93.8105Z" fill="black"/>
<path d="M741.684 89.0399H700.988C702.25 95.7179 706.666 100.806 715.184 100.806C719.601 100.806 722.756 99.5339 724.649 96.6719H741.369C738.214 107.484 727.803 114.798 714.869 114.798C697.202 114.798 684.899 101.76 684.899 85.2239C684.899 68.0519 696.887 55.6499 714.238 55.6499C730.012 55.6499 742 67.0979 742 84.2699C742 85.5419 742 87.1319 741.684 89.0399ZM700.988 79.1819H726.226C725.279 72.1859 721.178 68.3699 714.553 68.3699C706.666 68.3699 702.565 73.1399 700.988 79.1819Z" fill="black"/>
</g>
<defs>
<clipPath id="clip0_749_11278">
<rect width="741.026" height="155.616" fill="white" transform="scale(1.00131)"/>
</clipPath>
</defs>
</svg>
