<svg width="742" height="451" viewBox="0 0 742 451" fill="none" xmlns="http://www.w3.org/2000/svg">
<path d="M149.865 89.1886H123.777H97.0408L78.9745 201.826C78.5927 201.877 78.2108 201.903 77.8159 201.954C37.9019 207.262 6.9257 240.861 7.26945 278.432C7.42223 294.144 12.7823 306.417 22.3947 316.475C31.0778 325.565 42.9055 330.493 54.8479 330.493C59.5204 330.493 64.2059 329.741 68.7254 328.188C90.2419 320.778 97.3847 302.725 100.733 286.199C100.733 286.212 100.72 286.237 100.72 286.263C101.688 267.815 91.8333 249.596 73.0413 238.812L67.0956 276.357C65.1863 287.014 62.7033 293.38 57.3815 295.213C54.1985 296.308 50.2772 295.175 47.629 292.4C44.2169 288.822 42.218 284.837 42.1543 278.102C41.9761 259.323 56.7449 244.579 73.0413 238.812C78.1599 236.965 83.4816 236.1 89.4273 236.1C95.4618 236.1 101.815 237.258 107.621 239.206C129.634 244.401 142.977 267.751 146.274 293.036L148.209 307.207H184.839L149.865 89.1886ZM112.293 204.245L122.797 123.641H123.115H124.096L135.821 213.59C128.374 209.528 120.454 206.359 112.293 204.245ZM463.701 149.995V307.194H427.148V149.995H463.701ZM357.009 361.647C405.008 361.647 408.713 334.287 408.713 295.621L409.031 150.008H390.112C383.301 150.008 374.948 155.113 374.376 161.696L373.93 166.775L372.161 161.988C368.634 152.478 359.759 147.449 346.493 147.449C333.163 147.449 323.321 152.567 317.235 162.651C311.315 172.454 310.08 185.135 310.08 194.047V255.172C310.08 270.335 312.296 281.501 316.854 289.293C322.392 298.766 331.355 303.374 344.278 303.374C356.5 303.374 365.744 298.179 370.302 288.746L372.478 284.251V289.242V306.748C372.478 322.14 371.524 333.039 359.238 333.039C356.424 333.039 347.27 332.084 347.27 319.798V319.353H310.399V320.116C310.399 332.059 313.632 341.671 320.011 348.674C327.829 357.28 340.28 361.647 357.009 361.647ZM371.842 248.819C371.842 263.804 369.728 271.927 358.601 271.927C348.059 271.927 346.633 261.856 346.633 252.002V197.243C346.633 184.906 351.064 178.909 360.193 178.909C370.454 178.909 371.842 188.98 371.842 198.834V248.819ZM465.611 115.429C465.611 126.569 456.75 135.29 445.431 135.29C434.291 135.29 425.57 126.569 425.57 115.429C425.57 104.11 434.291 95.2489 445.431 95.2489C456.559 95.2489 465.611 104.301 465.611 115.429ZM233.054 200.744V307.207H196.182L195.864 150.008H216.362C223.403 150.008 231.526 154.973 232.417 162.37L232.825 165.757L234.543 162.816C240.489 152.631 250.114 147.462 263.164 147.462C284.158 147.462 294.815 160.996 294.815 187.706V307.219H258.263V195.969C258.263 184.651 254.341 178.909 246.613 178.909C236.606 178.909 233.054 184.626 233.054 200.744Z" fill="black"/>
<path d="M100.72 286.263C102.567 278.382 106.844 248.119 107.608 239.207C101.815 237.272 95.4495 236.1 89.4149 236.1C83.4692 236.1 78.1469 236.979 73.0289 238.812C91.834 249.596 101.688 267.815 100.72 286.263Z" fill="black"/>
</svg>
