<svg width="742" height="195" viewBox="0 0 742 195" fill="none" xmlns="http://www.w3.org/2000/svg">
<g clip-path="url(#clip0_749_11347)">
<path d="M95.6755 0.42012L95.7033 64.5834C95.7072 74.72 85.0478 81.2188 76.1911 76.4791L12.6127 42.4585C17.4616 34.3843 23.5592 27.1651 30.6283 21.0646L80.4923 67.6901C83.1347 70.16 87.2996 67.482 86.211 64.0134L66.8736 2.40445C73.3827 0.835353 80.1715 0 87.1537 0C90.0299 0 92.871 0.144599 95.6755 0.42012Z" fill="black"/>
<path d="M78.4152 175.911L78.3874 112.071C78.3835 101.935 89.0433 95.4353 97.8995 100.175L161.501 134.208C156.62 142.261 150.494 149.457 143.397 155.529L93.5984 108.964C90.9564 106.494 86.791 109.172 87.8796 112.641L107.144 174.017C100.725 175.541 94.0338 176.35 87.1552 176.35C84.2057 176.35 81.2895 176.201 78.4152 175.911Z" fill="black"/>
<path d="M107.446 81.6983L153.626 31.149C147.6 23.9689 140.463 17.7746 132.478 12.8464L98.7572 77.3464C94.0723 86.307 100.497 97.092 110.517 97.0871L173.873 97.0588C174.162 94.1378 174.312 91.1743 174.312 88.1758C174.312 81.2029 173.509 74.4205 171.996 67.9143L111.08 87.484C107.651 88.5855 105.004 84.3714 107.446 81.6983Z" fill="black"/>
<path d="M0.411338 79.5951L63.5762 79.5668C73.5966 79.5629 80.0202 90.3474 75.3359 99.3075L41.7885 163.475C33.8339 158.559 26.7214 152.387 20.7146 145.236L66.6481 94.9561C69.0894 92.283 66.4416 88.0689 63.0133 89.1699L2.36789 108.653C0.822734 102.081 -6.11154e-05 95.2255 -6.11154e-05 88.1747C-6.11154e-05 85.2794 0.141902 82.4178 0.411338 79.5951Z" fill="black"/>
<path fill-rule="evenodd" clip-rule="evenodd" d="M278.356 18.4255H295.908L354.188 158.076H334.856L316.873 113.643H257.11L239.874 158.076H221.608L278.356 18.4255ZM286.533 40.6802L263.859 97.2049H309.953L286.533 40.6802Z" fill="black"/>
<path fill-rule="evenodd" clip-rule="evenodd" d="M468.695 109.227C468.695 79.4338 489.002 57.8102 516.979 57.8102C545.077 57.8102 565.472 79.4338 565.472 109.227C565.472 139.02 545.077 160.645 516.979 160.645C489.002 160.645 468.695 139.02 468.695 109.227ZM486.98 109.227C486.98 131.644 498.477 145.569 516.979 145.569C535.612 145.569 547.186 131.644 547.186 109.227C547.186 86.8111 535.612 72.8858 516.979 72.8858C498.477 72.8858 486.98 86.8111 486.98 109.227Z" fill="black"/>
<path fill-rule="evenodd" clip-rule="evenodd" d="M693.716 57.8102C665.618 57.8102 645.223 79.4338 645.223 109.227C645.223 139.02 665.618 160.645 693.716 160.645C721.693 160.645 742 139.02 742 109.227C742 79.4338 721.693 57.8102 693.716 57.8102ZM693.716 145.569C675.083 145.569 663.504 131.644 663.504 109.227C663.504 86.8111 675.083 72.8858 693.716 72.8858C712.222 72.8858 723.714 86.8111 723.714 109.227C723.714 131.644 712.222 145.569 693.716 145.569Z" fill="black"/>
<path d="M596.558 158.076H578.906V18.4255H596.558V158.076Z" fill="black"/>
<path d="M614.137 158.076H631.793V18.4255H614.137V158.076Z" fill="black"/>
<path fill-rule="evenodd" clip-rule="evenodd" d="M413.418 160.644C398.985 160.644 388.174 153.651 381.939 144.982V194.868H364.287V60.3767H381.939V73.6409C388.188 64.8806 399.008 57.8102 413.418 57.8102C440.273 57.8102 458.315 78.4722 458.315 109.227C458.315 139.981 440.273 160.644 413.418 160.644ZM411.725 73.3125C393.655 73.3125 381.158 86.9353 381.158 106.497V111.957C381.158 131.518 393.655 145.14 411.725 145.14C429.448 145.14 440.029 131.715 440.029 109.227C440.029 86.7385 429.448 73.3125 411.725 73.3125Z" fill="black"/>
</g>
<defs>
<clipPath id="clip0_749_11347">
<rect width="741.026" height="194.613" fill="white" transform="scale(1.00131)"/>
</clipPath>
</defs>
</svg>
