<svg width="456" height="120" viewBox="0 0 456 120" fill="none" xmlns="http://www.w3.org/2000/svg">
<g clip-path="url(#clip0_749_11208)">
<path d="M362.858 78.7731C360.049 83.1903 354.631 85.8004 348.611 85.8004C339.18 85.8004 331.355 79.3754 331.355 69.6041H382.389C383.191 66.5924 383.392 65.1869 383.392 62.5768C383.392 40.1563 369.547 24.7631 348.611 24.7631C328.077 24.7631 313.63 39.3531 313.63 63.1791C313.63 86.4028 327.475 101.394 349.013 101.394C364.062 101.394 377.372 94.0324 381.185 78.7731C381.118 78.7731 362.858 78.7731 362.858 78.7731ZM348.544 40.424C357.975 40.424 365.266 46.4474 365.065 55.4156H331.488C331.488 46.5812 339.113 40.424 348.544 40.424Z" fill="black"/>
<path d="M308.346 24.8299C300.253 24.8299 294.032 27.7078 288.213 33.7312V26.2354H272.361V99.9888H289.417V57.2225C289.417 47.4512 295.236 41.227 304.065 41.227C305.67 41.227 307.075 41.4278 308.078 41.6286L319.917 26.0346C315.436 25.1645 311.356 24.8299 308.346 24.8299ZM455.696 26.1684H435.965L417.772 50.2621L399.579 26.1684H379.914L407.739 63.3798L379.914 99.9888H399.98L417.705 76.6313L435.43 99.9888H455.763L427.805 63.4467L455.696 26.1684ZM96.9182 9.57055C91.0991 17.3341 89.6945 19.9442 84.076 19.9442H0V119.933H32.9749C40.3993 119.933 47.623 116.319 52.3051 110.363C58.3248 102.331 59.1275 99.9888 64.9466 99.9888H149.156V0H115.981C108.556 0 101.333 3.61406 96.9182 9.57055ZM123.004 74.222H87.8217C80.1966 74.222 73.1736 77.4345 68.4915 83.5917C62.4718 91.623 61.2678 93.9654 55.6494 93.9654H25.9519V45.9788H61.1341C68.7591 45.9788 75.7822 42.3648 80.4642 36.4083C86.484 28.6447 88.0892 26.2354 93.507 26.2354H123.071V74.222H123.004ZM249.285 49.5929C256.71 45.3765 261.927 38.0145 261.927 28.1762C261.927 13.7869 250.89 0 234.771 0H186.546V99.9888H234.771C252.228 99.9888 264.335 87.6074 264.335 72.0134C264.335 62.7775 260.121 54.8132 249.285 49.5929ZM203.669 15.594H233.433C240.857 15.594 245.272 22.6213 245.272 28.7786C245.272 36.4083 238.65 41.5616 232.43 41.5616H203.669V15.594ZM232.363 84.3949H203.602V57.1556H233.366C240.991 57.1556 247.212 63.7814 247.212 70.541C247.279 78.1707 239.453 84.3949 232.363 84.3949Z" fill="black"/>
</g>
<defs>
<clipPath id="clip0_749_11208">
<rect width="455.696" height="120" fill="white"/>
</clipPath>
</defs>
</svg>
