<svg width="344" height="150" viewBox="0 0 344 150" fill="none" xmlns="http://www.w3.org/2000/svg">
<g clip-path="url(#clip0_749_11184)">
<path d="M0 0V150H343.511V0H0ZM334.385 140.861H9.12684V9.13938H334.385V140.861ZM49.7413 78.7129C49.7413 61.805 64.002 51.7517 76.7795 51.7517C85.9064 51.7517 94.4628 55.179 99.0262 63.1759L90.4698 68.2026C88.9867 65.9177 86.9331 64.0899 84.6514 62.8332C82.2556 61.5765 79.6317 60.8911 77.0077 60.8911C69.4781 60.8911 60.5794 66.8317 60.5794 78.4844C60.5794 89.9086 69.1358 96.1919 77.6922 96.1919C83.6247 96.1919 88.6444 92.8789 91.6107 87.6238L100.281 91.7365C95.3755 100.647 86.4768 105.446 76.2091 105.446C63.3175 105.446 49.7413 95.5065 49.7413 78.7129ZM130.628 105.446C137.701 105.446 144.432 102.247 147.855 97.6771V103.96H158.351V53.1226H147.855V59.4059C144.546 54.8363 137.701 51.7517 130.628 51.7517C115.112 51.7517 104.274 63.1759 104.274 78.5986C104.274 93.7928 115.226 105.446 130.628 105.446ZM131.655 61.4623C141.352 61.4623 148.083 68.7738 148.083 78.5986C148.083 88.4235 141.352 95.735 131.655 95.735C121.729 95.735 114.998 88.3092 114.998 78.3701C114.998 68.6596 121.957 61.4623 131.655 61.4623ZM211.743 62.9474H203.643V52.7799H211.857V37.6999H222.695V52.7799H233.989V62.9474H222.695V103.96H211.743V62.9474ZM263.994 105.446C271.067 105.446 277.798 102.247 281.221 97.6771V103.96H291.717V53.1226H281.221V59.4059C277.912 54.8363 271.067 51.7517 263.994 51.7517C248.478 51.7517 237.64 63.1759 237.64 78.5986C237.64 93.7928 248.592 105.446 263.994 105.446ZM265.021 61.4623C274.718 61.4623 281.449 68.7738 281.449 78.5986C281.449 88.4235 274.718 95.735 265.021 95.735C255.095 95.735 248.364 88.3092 248.364 78.3701C248.364 68.6596 255.323 61.4623 265.021 61.4623ZM180.255 103.96H169.303V53.0084H179.342V61.805C181.396 56.0929 185.845 52.2087 191.664 52.2087C192.919 52.2087 194.174 52.3229 195.428 52.5514V62.3762C187.214 61.4623 180.369 67.1744 180.369 80.3123V103.96H180.255Z" fill="black"/>
</g>
<defs>
<clipPath id="clip0_749_11184">
<rect width="343.511" height="150" fill="white"/>
</clipPath>
</defs>
</svg>
