<svg width="326" height="94" viewBox="0 0 326 94" fill="none" xmlns="http://www.w3.org/2000/svg">
<g clip-path="url(#clip0_749_11165)">
<path d="M217.625 27.1645C211.9 27.1645 205.06 29.1982 198.511 36.2678C191.962 29.1982 185.073 27.1645 179.397 27.1645C179.397 27.1645 157.518 25.5182 157.518 51.0363V92.3398H173.382V53.3605C173.382 41.9331 181.047 41.6909 182.551 42.0299C182.551 42.0299 185.316 42.1752 187.838 44.7899C187.838 44.7899 182.793 51.3752 182.405 59.6553C182.405 59.6553 181.289 81.106 198.511 81.106C215.733 81.106 214.617 59.6553 214.617 59.6553C214.229 51.3752 209.184 44.7899 209.184 44.7899C211.706 42.1752 214.471 42.0299 214.471 42.0299C215.927 41.6909 223.64 41.9331 223.64 53.3605V92.3398H239.504V51.0363C239.455 25.5182 217.625 27.1645 217.625 27.1645ZM198.462 69.4848C195.067 69.4848 193.951 65.2238 193.902 61.1564C193.805 54.0868 198.414 49.0026 198.462 48.9057C198.559 49.0026 203.12 54.0868 203.023 61.1564C203.023 65.2238 201.858 69.4848 198.462 69.4848Z" fill="white"/>
<path d="M148.592 28.2297H132.729V92.3881H148.592V28.2297Z" fill="white"/>
<path d="M140.684 0.435862C135.397 0.435862 131.031 4.69695 131.031 9.92646C131.031 15.2044 135.348 19.5623 140.684 19.5623C145.924 19.5623 150.193 15.2528 150.193 9.92646C150.193 4.79379 145.875 0.435862 140.684 0.435862Z" fill="white"/>
<path d="M82.5187 32.5392V0H66.8008V92.3881H82.5187V46.1456C108.57 33.5076 107.599 53.5057 107.599 53.5057V92.3881H123.366V53.5057C123.317 15.9306 90.4261 28.3265 82.5187 32.5392Z" fill="white"/>
<path d="M261.285 63.4322C269.726 66.3859 280.447 66.1438 280.447 66.1438C305.868 65.9985 305.14 47.55 305.14 47.55C304.509 26.7772 280.059 27.1646 280.059 27.1646C259.83 27.1646 245.664 41.0131 245.664 60.8174C245.664 80.6218 259.539 93.4051 280.981 93.4051C290.101 93.4051 298.785 90.8871 304.849 86.4808V71.228C298.494 76.6997 290.877 79.605 282.824 79.605C282.873 79.605 260.849 80.7186 261.285 63.4322ZM263.226 49.9226C265.894 43.192 271.424 39.6573 279.283 39.6573C285.735 39.6573 289.471 42.3689 289.471 46.6784C289.471 52.7311 282.63 53.2637 276.227 53.2637C269.92 53.2637 266.039 52.5858 264.293 52.15L262.595 51.7626L263.226 49.9226Z" fill="white"/>
<path d="M34.2495 93.4048C45.4072 93.4048 53.3146 89.1921 58.0203 85.6574V70.3078C51.0831 75.7794 42.9331 78.9268 35.7048 78.9268C24.159 78.9268 16.0575 70.9857 16.0575 59.5582C16.0575 48.7118 23.4313 41.1581 33.9584 41.1581C37.4027 41.1581 40.362 42.0297 43.5152 42.9012C46.7655 43.8213 50.1614 44.8381 54.1879 44.8381C55.4492 44.8381 56.7105 44.7413 57.9718 44.5476V29.9243C56.9045 30.0212 55.8858 30.118 54.8185 30.118C51.1801 30.118 47.8813 29.4401 44.437 28.7138C40.7986 27.939 37.0632 27.1643 32.6486 27.1643C23.8679 27.1643 15.7179 30.2633 9.75096 35.977C3.3959 42.0297 6.11478e-05 50.455 6.11478e-05 60.2845C6.11478e-05 79.7984 14.0685 93.4048 34.2495 93.4048Z" fill="white"/>
<path d="M323.817 35.0086C323.817 34.0401 323.672 33.1685 323.332 32.3938C323.041 31.5706 322.604 30.8927 322.022 30.3117C321.489 29.7306 320.809 29.2948 320.082 29.0043C319.354 28.6654 318.578 28.5201 317.705 28.5201C316.831 28.5201 316.055 28.6654 315.279 29.0043C314.551 29.2948 313.921 29.7791 313.339 30.3117C312.805 30.8927 312.368 31.5706 312.029 32.3938C311.738 33.217 311.544 34.0886 311.544 35.0086C311.544 35.9286 311.689 36.7517 311.98 37.5265C312.271 38.3012 312.659 39.0275 313.193 39.6086C313.727 40.1897 314.357 40.6739 315.133 41.0128C315.861 41.3518 316.734 41.497 317.656 41.497C318.481 41.497 319.306 41.3518 320.033 41.0128C320.761 40.6739 321.392 40.2381 321.974 39.657C322.507 39.076 322.944 38.3981 323.283 37.6233C323.672 36.8486 323.817 35.977 323.817 35.0086ZM325.515 35.0086C325.515 36.1707 325.321 37.2844 324.884 38.2528C324.496 39.2212 323.914 40.0444 323.186 40.7223C322.459 41.4002 321.634 41.9328 320.712 42.3202C319.791 42.7076 318.82 42.9012 317.753 42.9012C316.589 42.9012 315.57 42.7076 314.6 42.3202C313.678 41.9328 312.853 41.3518 312.126 40.6739C311.447 39.9476 310.913 39.1244 310.525 38.2044C310.137 37.236 309.943 36.1707 309.943 35.057C309.943 33.8949 310.137 32.7812 310.573 31.8128C311.01 30.8443 311.544 30.0212 312.271 29.3433C312.999 28.6654 313.824 28.1327 314.745 27.7453C315.667 27.358 316.686 27.1643 317.705 27.1643C318.723 27.1643 319.694 27.358 320.664 27.7453C321.586 28.1327 322.41 28.6654 323.138 29.3433C323.866 30.0212 324.399 30.8443 324.836 31.8128C325.321 32.7328 325.515 33.8464 325.515 35.0086ZM317.802 34.5728C318.093 34.5728 318.335 34.5728 318.578 34.5728C318.82 34.5244 319.063 34.4759 319.257 34.3791C319.451 34.2822 319.597 34.137 319.694 33.9917C319.791 33.798 319.839 33.5559 319.839 33.217C319.839 32.9264 319.791 32.7328 319.645 32.5875C319.548 32.4422 319.403 32.297 319.208 32.2485C319.014 32.2001 318.82 32.1033 318.578 32.1033C318.335 32.0549 318.141 32.0549 317.899 32.0549H316.152V34.6212H317.802V34.5728ZM316.201 39.5117H314.745V30.7959H318.044C319.111 30.7959 319.888 30.9896 320.421 31.377C320.955 31.7643 321.246 32.3938 321.246 33.3138C321.246 34.0886 321.003 34.6696 320.567 35.057C320.13 35.4444 319.597 35.638 318.917 35.7349L321.392 39.5602H319.742L317.462 35.8317H316.104V39.5117H316.201Z" fill="white"/>
<path d="M320.082 29.1014C319.354 28.7624 318.578 28.6172 317.753 28.6172C316.929 28.6172 316.104 28.7624 315.376 29.1014C314.648 29.3919 314.018 29.8277 313.484 30.4088C312.951 30.9898 312.514 31.6677 312.223 32.4425C311.932 33.2172 311.786 34.0888 311.786 35.0088C311.786 35.8804 311.932 36.7036 312.223 37.4783C312.514 38.253 312.902 38.9309 313.387 39.512C313.921 40.093 314.551 40.5289 315.279 40.8678C316.007 41.2068 316.831 41.352 317.753 41.352C318.578 41.352 319.354 41.2067 320.082 40.9162C320.809 40.5773 321.44 40.1415 321.974 39.6088C322.507 39.0278 322.944 38.3983 323.235 37.6236C323.526 36.8488 323.672 35.9772 323.672 35.0088C323.672 34.0888 323.526 33.2172 323.235 32.4425C322.944 31.6677 322.507 30.9898 321.974 30.4088C321.44 29.8277 320.809 29.3919 320.082 29.1014ZM320.13 41.0615C319.403 41.352 318.626 41.5457 317.753 41.5457C316.831 41.5457 315.958 41.4004 315.231 41.0615C314.503 40.7225 313.824 40.2383 313.29 39.6573C312.756 39.0762 312.368 38.3983 312.077 37.5751C311.786 36.8004 311.641 35.9288 311.641 35.0572C311.641 34.0888 311.786 33.2172 312.126 32.4425C312.417 31.6193 312.854 30.9414 313.436 30.3603C313.969 29.7793 314.648 29.3435 315.376 29.053C316.104 28.714 316.929 28.5687 317.802 28.5687C318.626 28.5687 319.451 28.714 320.179 29.053C320.906 29.3435 321.537 29.8277 322.119 30.3603C322.653 30.9414 323.09 31.6193 323.429 32.4425C323.72 33.2656 323.914 34.1372 323.914 35.0572C323.914 36.0257 323.769 36.8972 323.429 37.7204C323.138 38.4952 322.701 39.173 322.119 39.7541C321.537 40.2867 320.858 40.7225 320.13 41.0615ZM314.551 42.4657C313.581 42.0299 312.756 41.4973 312.029 40.771C311.35 40.0446 310.816 39.2215 310.379 38.253C309.991 37.2846 309.797 36.2193 309.797 35.0572C309.797 33.8467 309.991 32.7814 310.428 31.7646C310.865 30.7961 311.447 29.9245 312.174 29.2466C312.902 28.5203 313.775 27.9877 314.697 27.6003C315.667 27.2129 316.686 27.0193 317.753 27.0193C318.82 27.0193 319.791 27.2129 320.761 27.6003C321.731 27.9877 322.556 28.5203 323.284 29.2466C324.011 29.973 324.593 30.7961 325.03 31.7646C325.467 32.733 325.661 33.8467 325.661 35.0572C325.661 36.2678 325.467 37.333 325.03 38.3499C324.593 39.3183 324.06 40.1899 323.284 40.8678C322.556 41.5941 321.731 42.1267 320.761 42.5141C319.791 42.9015 318.82 43.0952 317.753 43.0952C316.637 43.0468 315.57 42.8531 314.551 42.4657ZM320.712 42.3204C321.634 41.9331 322.459 41.4004 323.187 40.7225C323.914 40.0446 324.448 39.2215 324.884 38.253C325.321 37.2846 325.515 36.2193 325.515 35.0088C325.515 33.7983 325.321 32.733 324.884 31.7646C324.496 30.7961 323.914 29.973 323.187 29.2951C322.459 28.6172 321.634 28.0845 320.712 27.6972C319.791 27.3098 318.82 27.1161 317.753 27.1161C316.686 27.1161 315.716 27.3098 314.794 27.6972C313.872 28.0845 312.999 28.6172 312.32 29.2951C311.592 29.973 311.059 30.7961 310.622 31.7646C310.234 32.733 309.991 33.7983 309.991 35.0088C309.991 36.1225 310.185 37.1878 310.573 38.1562C310.962 39.1246 311.495 39.9478 312.174 40.6257C312.854 41.352 313.678 41.8846 314.648 42.272C315.619 42.6594 316.637 42.8531 317.802 42.8531C318.82 42.9015 319.791 42.7078 320.712 42.3204ZM319.548 32.6361C319.451 32.4909 319.306 32.394 319.16 32.2972C319.015 32.2004 318.82 32.1519 318.578 32.1519C318.335 32.1035 318.141 32.1035 317.947 32.1035H316.346V34.3793H317.802C318.044 34.3793 318.335 34.3793 318.529 34.3793C318.772 34.3309 318.966 34.2825 319.112 34.1856C319.257 34.0888 319.403 33.992 319.5 33.8467C319.597 33.7014 319.645 33.4593 319.645 33.1688C319.694 32.9267 319.645 32.7814 319.548 32.6361ZM319.694 33.9435C319.597 34.0888 319.451 34.2341 319.257 34.3309C319.063 34.4278 318.869 34.4762 318.578 34.5246C318.335 34.5246 318.093 34.5246 317.802 34.5246H316.201V31.9582H317.947C318.141 31.9582 318.384 31.9583 318.626 32.0067C318.869 32.0067 319.063 32.0551 319.257 32.1519C319.451 32.2488 319.597 32.3456 319.694 32.4909C319.839 32.6362 319.888 32.8783 319.888 33.1204C319.839 33.5077 319.791 33.7498 319.694 33.9435ZM316.346 39.6573H314.6V30.6509H318.044C319.112 30.6509 319.936 30.8446 320.518 31.2804C321.101 31.7161 321.392 32.394 321.392 33.314C321.392 34.1372 321.149 34.7667 320.664 35.1541C320.276 35.493 319.742 35.7351 319.209 35.832L321.683 39.7057H319.694L317.414 35.9772H316.298V39.6573H316.346ZM316.201 35.7836H317.559L319.839 39.512H321.489L319.015 35.6867C319.063 35.6867 319.112 35.6867 319.16 35.6867C319.742 35.5899 320.227 35.3962 320.615 35.0572C321.052 34.6699 321.295 34.1372 321.295 33.314C321.295 32.4425 321.004 31.7646 320.47 31.3772C319.936 30.9898 319.16 30.7961 318.093 30.7961H314.794V39.512H316.249V35.7836H316.201Z" fill="white"/>
</g>
<defs>
<clipPath id="clip0_749_11165">
<rect width="325.399" height="93.2812" fill="white" transform="scale(1.00185)"/>
</clipPath>
</defs>
</svg>
