<svg width="742" height="122" viewBox="0 0 742 122" fill="none" xmlns="http://www.w3.org/2000/svg">
<g clip-path="url(#clip0_749_11368)">
<path d="M55.7434 91.0767C49.9501 93.2506 43.427 94.3375 36.0827 94.3375C12.0427 94.3375 -6.11154e-05 82.7888 -6.11154e-05 59.6914C-6.11154e-05 37.8168 12.0427 26.9022 36.0827 26.9022C43.427 26.9022 49.9958 27.9891 55.7434 30.163V41.3041C49.9501 38.8132 43.7007 37.5904 36.995 37.5904C20.8924 37.5904 12.8638 44.9725 12.8638 59.6914C12.8638 75.6784 20.8924 83.6493 36.995 83.6493C43.7007 83.6493 49.9501 82.4265 55.7434 79.9356V91.0767ZM62.221 60.6878C62.221 38.1339 73.4427 26.8569 95.8405 26.8569C117.919 26.8569 128.958 38.1339 128.958 60.6878C128.958 83.1058 117.919 94.3375 95.8405 94.3375C74.4463 94.3375 63.2246 83.1058 62.221 60.6878ZM95.8861 83.604C109.389 83.604 116.14 75.8596 116.14 60.416C116.14 45.1989 109.389 37.5904 95.8861 37.5904C82.0642 37.5904 75.1305 45.1989 75.1305 60.416C75.1305 75.8596 82.0186 83.604 95.8861 83.604ZM138.72 93.8393V27.3551H151.584L174.301 77.807L196.608 27.3551H209.015V93.8846H197.52V47.5087L179.365 93.8393H168.781L150.215 47.5087V93.8393H138.72ZM223.065 93.8393V27.3551H235.929L258.646 77.807L280.907 27.3551H293.315V93.8846H281.819V47.5087L263.664 93.8393H253.081L234.515 47.5087V93.8393H223.065ZM369.312 27.3551L339.935 93.8846H326.569L298.469 27.3551H313.249L334.005 78.3052L354.715 27.3551H369.312ZM355.445 93.8393L383.864 27.3098H397.229L426.287 93.8393H412.922L404.483 75.6784H383.499L387.741 64.9902H401.198L390.25 40.036L368.172 93.8393H355.445ZM427.975 67.7076V27.3551H440.383V67.7076C440.383 78.3052 445.857 83.604 456.759 83.604C467.662 83.604 473.136 78.3052 473.136 67.7076V27.3551H485.543V67.7076C485.543 85.4608 475.918 94.3375 456.714 94.3375C437.509 94.3375 427.975 85.4608 427.975 67.7076ZM510.678 27.3551V83.1511H541.971V93.8393H498.27V27.3551H510.678ZM586.082 27.3551V38.0433H566.878V93.8393H554.47V38.0433H535.22V27.3551H586.082Z" fill="black"/>
<path d="M598.034 29.4836C598.809 29.4836 599.356 29.6194 599.721 29.9365C600.086 30.2535 600.269 30.7064 600.269 31.2951C600.269 31.8839 600.132 32.2915 599.767 32.5632C599.448 32.835 599.037 32.9708 598.581 33.0161L600.406 35.824H599.356L597.623 33.1067H596.574V35.824H595.57V29.4383L598.034 29.4836ZM597.577 32.3368H598.216C598.398 32.3368 598.581 32.2915 598.763 32.2009C598.9 32.1556 599.037 32.0198 599.128 31.8839C599.22 31.748 599.265 31.5669 599.265 31.2951C599.265 31.0687 599.22 30.8875 599.128 30.797C599.037 30.6611 598.946 30.5705 598.809 30.5252C598.672 30.4799 598.535 30.4346 598.353 30.3894C598.17 30.3894 597.988 30.3441 597.851 30.3441H596.528V32.3821L597.577 32.3368Z" fill="black"/>
<path d="M597.714 27.2643C594.704 27.2643 592.24 29.7099 592.24 32.699C592.24 35.688 594.704 38.1337 597.714 38.1337C600.725 38.1337 603.188 35.688 603.188 32.699C603.188 29.7099 600.725 27.2643 597.714 27.2643ZM597.714 37.3185C595.114 37.3185 593.016 35.2352 593.016 32.6537C593.016 30.0722 595.114 27.9889 597.714 27.9889C600.315 27.9889 602.413 30.0722 602.413 32.6537C602.367 35.2804 600.269 37.3185 597.714 37.3185Z" fill="black"/>
<path d="M688.127 -0.000244461L634.253 30.8868V90.306L688.127 121.193L742 90.306V30.8868L688.127 -0.000244461ZM732.648 84.9619L688.081 110.505L643.514 84.9619V36.2309L688.081 10.688L732.648 36.2309V84.9619Z" fill="black"/>
<path d="M685.025 98.1871C685.025 98.64 684.523 98.9118 684.112 98.6853L652.728 80.7056C652.181 80.3886 651.816 79.7998 651.816 79.1658V44.3838C651.816 43.9309 652.318 43.6592 652.728 43.8856L684.112 61.8654C684.66 62.1824 685.025 62.7712 685.025 63.4052V98.1871ZM719.328 39.1303L689.313 56.3401C688.583 56.7477 687.671 56.7477 686.941 56.3401L656.925 39.1303C656.514 38.9039 656.514 38.3151 656.925 38.0887L686.941 20.8788C687.671 20.4712 688.583 20.4712 689.313 20.8788L719.328 38.0887C719.739 38.3151 719.739 38.9039 719.328 39.1303ZM719.328 83.0606L692.095 98.6853C691.685 98.9118 691.183 98.64 691.183 98.1871V66.983C691.183 66.5301 691.685 66.2584 692.095 66.4849L719.328 82.1095C719.739 82.2907 719.739 82.8342 719.328 83.0606Z" fill="black"/>
</g>
<defs>
<clipPath id="clip0_749_11368">
<rect width="741.026" height="121.034" fill="white" transform="scale(1.00131)"/>
</clipPath>
</defs>
</svg>
