<svg width="742" height="176" viewBox="0 0 742 176" fill="none" xmlns="http://www.w3.org/2000/svg">
<g clip-path="url(#clip0_749_11416)">
<path fill-rule="evenodd" clip-rule="evenodd" d="M0 159.699C0 169.409 6.16279 175.607 15.8178 175.607H61.8333C89.3605 175.607 111.752 166.31 126.953 149.989H0V159.699ZM61.8333 0H15.8178C6.16279 0 0 6.19788 0 15.9079V25.8245H126.953C111.547 9.29682 89.155 0 61.8333 0ZM101.891 112.801C101.891 120.652 106.822 125.61 114.628 125.61H142.155C145.236 117.76 147.291 109.289 148.318 99.9925H114.628C106.822 99.9925 101.891 105.157 101.891 112.801ZM63.6822 62.8052C63.6822 70.6559 68.6124 75.6142 76.4186 75.6142H148.318C147.291 66.3173 145.236 57.8469 142.155 49.9963H76.4186C68.6124 49.9963 63.6822 55.1612 63.6822 62.8052ZM76.4186 112.801C76.4186 104.951 71.4884 99.9925 63.6822 99.9925H0V125.61H63.6822C71.4884 125.61 76.4186 120.652 76.4186 112.801ZM38.2093 62.8052C38.2093 54.9546 33.2791 49.9963 25.4729 49.9963H0V75.6142H25.4729C33.2791 75.6142 38.2093 70.6559 38.2093 62.8052Z" fill="black"/>
<path fill-rule="evenodd" clip-rule="evenodd" d="M323.752 85.1182C325.806 74.995 332.38 70.0367 341.213 70.0367C349.841 70.0367 356.209 75.4082 358.058 85.1182H323.752ZM341.418 52.6827C319.232 52.6827 305.469 70.4499 305.469 92.3491C305.469 114.868 320.26 131.809 342.035 131.809C357.031 131.809 366.275 124.785 372.027 115.901L357.853 106.811C354.36 111.769 348.608 114.248 342.651 114.248C332.791 114.248 326.011 109.497 323.752 100.2H360.934H374.492C375.108 97.7206 375.314 95.2415 375.314 92.3491C375.519 73.3423 363.81 52.6827 341.418 52.6827Z" fill="black"/>
<path fill-rule="evenodd" clip-rule="evenodd" d="M248.771 114.041C235.213 114.041 226.996 104.125 226.996 92.1419C226.996 79.9528 235.419 70.2427 248.771 70.2427C262.124 70.2427 270.546 80.1593 270.546 92.1419C270.752 104.331 262.535 114.041 248.771 114.041ZM269.108 64.2515C263.767 57.6404 255.961 53.7151 246.306 53.7151C224.942 53.7151 209.535 71.0691 209.535 92.7617C209.535 114.248 224.736 131.808 246.306 131.808C255.961 131.808 263.562 127.676 269.108 121.272V129.949H288.008V26.4444H269.108V64.2515Z" fill="black"/>
<path fill-rule="evenodd" clip-rule="evenodd" d="M433.449 90.902C438.585 94.4141 441.872 99.9922 441.872 107.016C441.872 121.478 432.217 131.395 414.139 131.395C397.089 131.395 388.05 122.511 384.353 113.834L399.965 104.744C399.965 104.744 402.019 114.247 413.934 114.247C421.329 114.247 423.384 110.942 423.384 108.049C423.384 106.81 422.973 104.331 417.837 102.265C407.36 98.1328 387.229 96.2735 387.229 77.2666C387.229 61.7719 399.349 53.5081 414.139 53.5081C428.108 53.5081 436.942 62.1851 440.434 69.0028L425.232 78.093C425.232 78.093 422.356 70.6556 414.345 70.6556C406.333 70.6556 405.717 75.2007 405.717 76.6468C405.717 80.5722 409.62 82.0183 418.043 84.7041C422.973 85.9437 428.108 87.3898 433.449 90.902ZM742 73.9611H726.182V104.537C726.182 114.041 735.426 111.975 742 111.975V129.329C742 129.329 738.508 129.949 732.55 129.949C718.992 129.949 708.105 125.817 708.105 104.537V73.9611H695.984V55.7806H708.105V35.121H726.182V55.7806H742V73.9611ZM486.86 113.008C494.461 113.008 500.213 109.289 503.089 103.091L518.701 112.595C512.539 123.957 501.035 131.808 486.86 131.808C465.085 131.808 450.089 114.454 450.089 92.9679C450.089 71.482 465.291 54.1279 486.86 54.1279C501.035 54.1279 512.333 61.9785 518.496 73.1347L502.884 82.8447C500.008 76.6468 494.256 72.9281 486.86 72.9281C475.973 72.9281 468.167 82.0183 468.167 93.1745C467.961 103.918 475.767 113.008 486.86 113.008Z" fill="black"/>
<path fill-rule="evenodd" clip-rule="evenodd" d="M653.256 112.802C641.546 112.802 634.356 103.505 634.356 92.1419C634.356 80.7791 641.546 71.4823 653.256 71.4823C664.965 71.4823 672.155 80.7791 672.155 92.1419C672.155 103.505 664.965 112.802 653.256 112.802ZM655.515 53.5085C675.442 53.5085 689.822 70.8625 689.822 92.1419C689.822 113.421 675.647 130.775 655.515 130.775C646.682 130.775 639.492 126.85 634.356 120.239V158.046H616.69V55.5744H634.356V64.0449C639.492 57.4338 646.682 53.5085 655.515 53.5085ZM583 128.916V55.5744H600.667V128.916H583ZM550.132 68.1768C553.624 59.2931 560.403 54.1282 570.88 54.1282V75.201C558.76 73.9615 549.926 80.5725 550.132 95.8606V128.916H532.465V55.5744H550.132V68.1768ZM583 45.8644V26.4444H601.077V46.071H583V45.8644Z" fill="black"/>
</g>
<defs>
<clipPath id="clip0_749_11416">
<rect width="741.026" height="175.376" fill="white" transform="scale(1.00131)"/>
</clipPath>
</defs>
</svg>
