<svg width="742" height="168" viewBox="0 0 742 168" fill="none" xmlns="http://www.w3.org/2000/svg">
<g clip-path="url(#clip0_749_11317)">
<path d="M116.149 0.000122095V131.369C116.149 144.126 116.651 157.642 117.027 165.347H85.7949L84.4151 148.8H83.6625C76.7638 161.432 62.8408 167.874 48.2908 167.874C21.5738 168 -0.000479078 145.011 -0.000479078 109.516C-0.251343 71.1159 23.5807 48.758 50.674 48.758C64.7223 48.758 75.384 53.937 80.5267 61.5159H81.0285V0.000122095H116.149ZM81.0285 99.6633C81.1539 97.5159 81.0285 95.2422 80.6522 93.0949C78.5198 83.7475 70.8685 75.9159 59.9559 75.9159C43.7752 75.9159 35.6221 90.3159 35.6221 108.253C35.6221 127.579 45.155 139.705 59.7051 139.705C69.7396 139.705 78.3944 132.632 80.2759 122.653C80.7776 120 81.0285 117.221 80.903 114.569V99.6633H81.0285Z" fill="black"/>
<path d="M244.592 107.117C244.592 148.801 215.241 167.875 184.886 167.875C151.772 167.875 126.435 146.022 126.435 109.138C126.435 72.1273 150.518 48.5062 187.019 48.5062C221.387 48.6325 244.592 72.6326 244.592 107.117ZM162.685 108.38C162.685 127.959 170.838 142.611 185.764 142.611C199.687 142.611 208.217 128.843 208.217 108.127C208.217 91.3273 201.694 74.1483 185.764 74.1483C169.082 74.022 162.685 91.5799 162.685 108.38Z" fill="black"/>
<path d="M340.296 162.316C334.025 165.347 322.234 167.621 308.813 167.621C272.312 167.621 248.857 145.01 248.857 109.389C248.857 76.0421 271.56 48.8842 313.579 48.8842C322.861 48.8842 333.021 50.5263 340.422 53.3052L334.903 79.5789C330.764 77.6842 324.492 76.0421 315.21 76.0421C296.646 76.0421 284.73 89.3052 284.856 108C284.856 128.716 298.778 139.958 315.837 139.958C324.116 139.958 330.638 138.568 335.906 136.168L340.296 162.316Z" fill="black"/>
<path d="M372.783 119.747C373.661 134.4 388.211 141.474 404.643 141.474C415.305 141.6 425.841 139.958 435.875 136.547L440.516 160.547C428.977 165.474 414.803 167.747 399.5 167.747C361.118 167.747 339.167 145.389 339.167 109.642C339.167 80.7158 356.979 48.8842 396.239 48.8842C432.865 48.8842 446.662 77.5579 446.662 105.726C446.662 110.4 446.286 115.074 445.534 119.747H372.783ZM414.176 95.4947C414.176 86.9052 410.538 72.3789 394.357 72.3789C379.556 72.3789 373.536 86.1473 372.658 95.4947H414.176Z" fill="black"/>
<path d="M456.195 0.000122095H491.316V64.9264H491.818C498.591 55.2001 510.382 48.8843 526.061 48.8843C553.154 48.8843 572.721 71.4949 572.596 106.484C572.596 147.537 546.882 168 521.043 168C507.873 168 494.954 163.074 487.051 149.558H486.55L485.17 165.347H455.317C455.819 157.895 456.195 144.126 456.195 131.369V0.000122095ZM491.442 116.969C491.442 119.116 491.692 121.137 492.069 123.284C494.326 132.632 502.48 140.084 512.64 140.084C527.691 140.084 536.973 128.463 536.973 107.874C536.973 90.1896 529.071 76.1685 512.64 76.1685C503.107 76.1685 494.326 83.3685 492.069 93.6001C491.567 95.7475 491.442 97.8949 491.442 100.169V116.969Z" fill="black"/>
<path d="M695.394 107.117C695.394 148.801 666.043 167.875 635.688 167.875C602.574 167.875 577.112 146.022 577.112 109.138C577.112 72.1273 601.194 48.5062 637.695 48.5062C672.314 48.6325 695.394 72.6326 695.394 107.117ZM613.487 108.38C613.487 127.959 621.64 142.611 636.692 142.611C650.615 142.611 659.144 128.843 659.144 108.127C659.144 91.3273 652.621 74.1483 636.692 74.1483C620.009 74.022 613.487 91.5799 613.487 108.38Z" fill="black"/>
<path d="M741.176 68.4634C741.176 78.0634 733.4 85.7686 723.992 85.7686C714.459 85.7686 706.808 77.937 706.808 68.4634C706.808 58.9897 714.459 51.537 724.243 51.537C728.759 51.4107 733.149 53.1791 736.285 56.337C739.295 59.4949 741.176 63.916 741.176 68.4634ZM710.947 68.4634C710.822 72.0002 712.202 75.4107 714.71 77.937C717.219 80.4634 720.606 81.8528 724.118 81.8528C731.393 81.9792 736.912 75.7897 736.912 68.4634C736.912 61.137 731.393 54.9476 723.992 54.9476C720.48 54.9476 717.219 56.4634 714.71 58.9897C712.202 61.516 710.822 64.9265 710.947 68.4634ZM721.233 77.1791H717.344V60.2528C719.477 59.8739 721.609 59.7476 723.741 59.7476C726.877 59.7476 728.382 60.2528 729.511 61.137C730.64 62.0213 731.267 63.2844 731.267 64.8002C731.267 66.8213 729.762 68.2107 727.755 68.8423V69.0949C729.386 69.6002 730.138 70.9897 730.766 73.2634C731.016 74.6528 731.393 76.0423 732.02 77.4318H727.881C727.379 76.8002 727.128 75.4107 726.501 73.2634C726.25 71.4949 725.121 70.737 722.989 70.737H721.233V77.1791ZM721.358 67.7055H723.24C725.372 67.7055 727.128 66.9476 727.128 65.1792C727.128 63.6634 725.999 62.6528 723.49 62.6528C722.738 62.6528 722.111 62.6528 721.358 62.9055V67.7055Z" fill="black"/>
</g>
<defs>
<clipPath id="clip0_749_11317">
<rect width="741.026" height="167.966" fill="white"/>
</clipPath>
</defs>
</svg>
