<svg width="742" height="129" viewBox="0 0 742 129" fill="none" xmlns="http://www.w3.org/2000/svg">
<g clip-path="url(#clip0_749_11306)">
<path d="M71.3495 0H0V128.613H71.3495C116.859 128.613 146.254 103.373 146.254 64.3191C146.254 25.2651 116.853 0 71.3495 0ZM69.7789 103.125H31.3804V25.5007H69.7789C95.1244 25.5007 111.485 40.7404 111.485 64.3067C111.485 87.873 95.1244 103.113 69.7789 103.113V103.125Z" fill="black"/>
<path d="M277.805 86.9868C294.648 79.1686 303.546 65.3425 303.546 46.9905C303.546 18.0116 280.903 0.000488923 244.452 0.000488923H167.253V128.614H200.031V93.2241H242.918L268.023 128.614H304.17L275.307 88.14L277.792 86.993H277.811L277.805 86.9868ZM242.077 68.6968H200.037V25.123H242.077C259.279 25.123 268.771 32.8854 268.771 46.9967C268.771 61.1079 259.044 68.6906 242.077 68.6906V68.6968Z" fill="black"/>
<path d="M607.494 0.000488923H452.465L462.352 25.3152H512.877V128.614H547.274V25.3152H597.594L607.482 0.000488923H607.488H607.494Z" fill="black"/>
<path d="M374.574 0.000488923L318.905 128.614H353.588L360.457 110.262C386.613 102.518 404.786 101.96 430.514 111.124L437.032 128.614H472.505L416.608 0.000488923H374.562H374.58H374.574ZM369.429 85.257L393.606 27.4294H397.007L421.406 85.815C403.685 78.7718 387.163 78.22 369.429 85.257Z" fill="black"/>
<path d="M644.074 0.000488923L588.406 128.614H623.088L629.958 110.262C656.113 102.518 674.286 101.96 700.015 111.124L706.532 128.614H742.006L686.103 0.000488923H644.056H644.074ZM638.924 85.257L663.101 27.4294H666.501L690.901 85.815C673.179 78.7718 656.658 78.22 638.924 85.257Z" fill="black"/>
</g>
<defs>
<clipPath id="clip0_749_11306">
<rect width="741.026" height="128.445" fill="white" transform="scale(1.00131)"/>
</clipPath>
</defs>
</svg>
