<svg width="388" height="110" viewBox="0 0 388 110" fill="none" xmlns="http://www.w3.org/2000/svg">
<path d="M42.0126 18.2089V49.2243H13.5187V18.2089H0V92.247H13.5224V62.238H42.009V92.247H55.535V18.2089H42.0126ZM98.8175 68.3167C98.8175 71.2843 97.6386 74.1303 95.5402 76.2287C93.4418 78.3271 90.5957 79.506 87.6281 79.506C84.6605 79.506 81.8145 78.3271 79.7161 76.2287C77.6177 74.1303 76.4388 71.2843 76.4388 68.3167V36.6023H63.6118V68.3167C63.6118 74.6799 66.1396 80.7825 70.639 85.282C75.1385 89.7815 81.2411 92.3092 87.6044 92.3092C93.9676 92.3092 100.07 89.7815 104.57 85.282C109.069 80.7825 111.597 74.6799 111.597 68.3167V36.6023H98.8175V68.3167ZM193.862 39.8703C193.862 33.3672 198.162 31.3068 202.872 31.3068C206.671 31.3068 211.684 34.1979 214.967 37.7038L223.366 27.8008C219.172 22.1284 210.667 18.2089 203.703 18.2089C189.785 18.2089 179.721 26.3589 179.721 39.8703C179.721 64.9388 210.359 56.9828 210.359 71.0138C210.359 75.3395 206.158 79.1602 201.349 79.1602C193.763 79.1602 191.304 75.453 187.82 71.5298L178.495 81.2242C184.46 88.5435 191.816 92.2617 200.625 92.2617C213.847 92.2617 224.482 84.0128 224.482 71.1163C224.482 43.2884 193.84 51.9361 193.84 39.8703M383.409 80.4191C375.83 80.4191 373.674 77.14 373.674 72.119V49.8867H385.458V38.6224H373.674V23.7606L360.668 29.5977V74.882C360.668 86.4648 368.661 92.3019 379.618 92.3019C381.338 92.3312 383.058 92.1921 384.748 91.892L387.921 80.2105C386.49 80.3093 384.847 80.4081 383.409 80.4081M147.644 36.9719C141.291 36.9719 136.856 38.8163 132.567 43.0213V18.6518H119.721V63.8226C119.721 80.7301 131.944 92.3166 145.683 92.3166C160.921 92.3166 174.327 80.5252 174.327 64.6497C174.327 48.9718 161.99 36.9829 147.644 36.9829M147.564 79.3871C145.649 79.3871 143.754 79.01 141.985 78.2774C140.216 77.5447 138.609 76.4709 137.256 75.1172C135.902 73.7635 134.828 72.1564 134.095 70.3877C133.363 68.619 132.986 66.7233 132.986 64.8089C132.986 62.8945 133.363 60.9988 134.095 59.2301C134.828 57.4614 135.902 55.8543 137.256 54.5006C138.609 53.1469 140.216 52.0731 141.985 51.3404C143.754 50.6078 145.649 50.2308 147.564 50.2308C151.43 50.2308 155.138 51.7667 157.872 54.5006C160.606 57.2345 162.142 60.9425 162.142 64.8089C162.142 68.6753 160.606 72.3833 157.872 75.1172C155.138 77.8511 151.43 79.3871 147.564 79.3871ZM287.15 63.9763C287.15 48.0716 273.774 36.3095 258.506 36.3095C244.771 36.3095 232.544 47.8922 232.544 64.8034V110H245.39V85.5975C249.671 89.7951 254.114 91.6468 260.46 91.6468C274.806 91.6468 287.15 79.6579 287.15 63.9763ZM274.985 63.8153C274.985 67.6817 273.449 71.3897 270.715 74.1236C267.981 76.8576 264.273 78.3935 260.407 78.3935C256.54 78.3935 252.832 76.8576 250.099 74.1236C247.365 71.3897 245.829 67.6817 245.829 63.8153C245.829 59.9489 247.365 56.2409 250.099 53.507C252.832 50.7731 256.54 49.2372 260.407 49.2372C264.273 49.2372 267.981 50.7731 270.715 53.507C273.449 56.2409 274.985 59.9489 274.985 63.8153Z" fill="black"/>
<path d="M328.657 35.6888V22.7812C330.363 21.984 331.807 20.7188 332.822 19.1328C333.836 17.5468 334.38 15.7052 334.388 13.8224V13.526C334.388 8.03655 329.938 3.58644 324.449 3.58644H324.152C321.516 3.58644 318.988 4.63364 317.124 6.49767C315.26 8.3617 314.213 10.8899 314.213 13.526V13.8224C314.221 15.7052 314.765 17.5468 315.779 19.1328C316.794 20.7188 318.238 21.984 319.944 22.7812V35.6888C315.041 36.4394 310.424 38.472 306.56 41.5808L271.161 14.0091C271.413 13.0978 271.545 12.161 271.56 11.2204C271.564 9.00528 270.911 6.83859 269.684 4.99445C268.457 3.1503 266.71 1.71154 264.665 0.860158C262.62 0.00877547 260.369 -0.21698 258.195 0.211448C256.022 0.639876 254.024 1.70324 252.456 3.26703C250.887 4.83083 249.817 6.82479 249.381 8.99672C248.946 11.1686 249.164 13.4209 250.009 15.4687C250.854 17.5165 252.287 19.2678 254.127 20.501C255.967 21.7343 258.131 22.3941 260.346 22.397C262.284 22.3878 264.186 21.8705 265.862 20.8965L300.72 48.0217C297.588 52.7524 295.954 58.3167 296.032 63.9894C296.109 69.6621 297.893 75.18 301.151 79.824L290.549 90.4296C289.692 90.1555 288.8 90.01 287.9 89.9977C286.082 89.9992 284.305 90.5396 282.793 91.5507C281.282 92.5618 280.104 93.9982 279.409 95.6784C278.714 97.3585 278.533 99.2071 278.888 100.99C279.243 102.774 280.118 104.412 281.404 105.697C282.69 106.983 284.328 107.859 286.111 108.214C287.895 108.569 289.743 108.388 291.423 107.692C293.103 106.997 294.54 105.82 295.551 104.308C296.562 102.797 297.102 101.02 297.104 99.2017C297.092 98.302 296.947 97.4091 296.672 96.5521L307.161 86.06C310.581 88.6931 314.558 90.5084 318.789 91.3669C323.019 92.2253 327.389 92.1041 331.565 91.0125C335.741 89.9209 339.612 87.888 342.881 85.0693C346.15 82.2507 348.731 78.7211 350.425 74.7511C352.119 70.7812 352.882 66.476 352.656 62.1656C352.429 57.8551 351.219 53.6537 349.118 49.8832C347.017 46.1128 344.08 42.8732 340.534 40.4128C336.987 37.9525 332.925 36.3365 328.657 35.6888ZM324.31 78.1405C322.371 78.1939 320.442 77.8581 318.635 77.1532C316.829 76.4482 315.182 75.3883 313.792 74.0361C312.402 72.684 311.297 71.0669 310.543 69.2805C309.789 67.4942 309.4 65.5747 309.4 63.6356C309.4 61.6964 309.789 59.777 310.543 57.9906C311.297 56.2042 312.402 54.5872 313.792 53.235C315.182 51.8828 316.829 50.8229 318.635 50.1179C320.442 49.413 322.371 49.0773 324.31 49.1306C328.066 49.2622 331.626 50.8466 334.238 53.5502C336.85 56.2539 338.31 59.8656 338.312 63.6248C338.314 67.3841 336.857 70.9973 334.248 73.7036C331.639 76.4098 328.081 77.9979 324.324 78.1332" fill="black"/>
</svg>
