<svg width="635" height="120" viewBox="0 0 635 120" fill="none" xmlns="http://www.w3.org/2000/svg">
<path d="M621.548 73.732C621.548 59.9055 614.639 50.067 602.541 50.067C589.783 50.067 582.207 59.9055 582.207 73.732C582.207 87.5582 589.783 97.3985 602.541 97.3985C614.639 97.3985 621.548 87.5582 621.548 73.732ZM634.178 13.2963V106.704C634.178 107.103 633.912 107.369 633.512 107.369H623.548C623.148 107.369 623.014 107.103 622.881 106.704L621.548 101.386C621.287 100.588 620.62 100.722 620.221 101.12C616.632 104.71 607.862 108.698 601.214 108.698C581.807 108.698 569.582 94.4735 569.582 73.732C569.582 52.9921 581.807 38.7652 601.214 38.7652C610.523 38.7652 618.626 44.4836 620.221 46.3453C620.887 47.1425 621.548 46.6097 621.548 46.0792V13.2963C621.548 12.898 621.815 12.6313 622.215 12.6313H633.512C633.912 12.6313 634.178 12.898 634.178 13.2963ZM488.345 96.0668H484.49C481.717 96.0668 480.129 93.7018 480.11 91.715V13.2963C480.11 12.898 479.845 12.6313 479.446 12.6313H468.147C467.748 12.6313 467.482 12.898 467.482 13.2963C467.482 13.6902 467.482 80.2037 467.482 90.5782C467.482 98.1213 470.383 102.012 472.115 103.746C473.888 105.519 476.492 106.586 479.975 107.063C481.347 107.251 482.825 107.369 484.49 107.369H488.345C488.743 107.369 489.009 107.103 489.009 106.704V96.7335C489.009 96.3336 488.743 96.0668 488.345 96.0668ZM180.871 12.6313H169.573C169.174 12.6313 168.907 12.898 168.907 13.2963V106.704C168.907 107.103 169.174 107.369 169.573 107.369H180.871C181.269 107.369 181.535 107.103 181.535 106.704V13.2963C181.535 12.898 181.269 12.6313 180.871 12.6313ZM423.663 50.067C432.702 50.067 439.082 54.3216 442.006 62.1661C442.137 62.5639 442.404 62.8306 442.801 62.8306H454.633C455.032 62.8306 455.429 62.6989 455.297 62.1661C451.709 47.5403 440.545 38.7652 423.663 38.7652C402.795 38.7652 390.833 52.8576 390.833 73.732C390.833 94.4735 402.795 108.698 423.663 108.698C440.545 108.698 451.574 100.057 455.297 85.2999C455.429 84.7671 455.032 84.6354 454.633 84.6354H442.801C442.404 84.6354 442.137 84.8993 442.006 85.2999C439.082 93.1441 432.702 97.3985 423.663 97.3985C411.035 97.3985 403.459 87.5582 403.459 73.732C403.459 59.9055 411.035 50.067 423.663 50.067ZM543.634 77.8543C543.634 77.4558 543.368 77.1898 542.969 77.1898H524.36C510.272 77.1898 507.747 82.7732 507.747 87.4261C507.747 92.2135 511.071 97.3985 521.703 97.3985C537.786 97.3985 543.368 87.8245 543.634 79.7158V77.8543ZM565.167 96.7335V106.704C565.167 107.103 564.9 107.369 564.5 107.369H560.646C553.071 107.369 548.552 105.506 546.559 101.252C546.292 100.588 545.628 100.722 545.364 100.986C542.173 104.312 533.931 108.698 521.703 108.698C503.893 108.698 495.12 100.057 495.12 87.4261C495.12 75.8603 504.823 67.2169 524.36 67.2169H539.249C542.173 67.2169 543.634 64.6923 543.634 62.8306C543.634 57.3788 542.304 50.067 526.488 50.067C515.057 50.067 509.873 55.3849 509.873 62.1661C509.873 62.5639 509.608 62.8306 509.208 62.8306H497.912C497.511 62.8306 497.246 62.5639 497.246 62.1661C497.246 46.4775 511.468 38.7652 526.488 38.7652C544.831 38.7652 556.263 46.6097 556.263 62.8306V91.6807C556.263 93.6744 557.857 96.0668 560.646 96.0668H564.5C564.9 96.0668 565.167 96.3336 565.167 96.7335ZM236.132 38.7652H229.352C222.706 38.7652 217.789 42.3552 213.269 46.8759C212.871 47.2742 212.073 47.5403 211.807 46.7436L210.479 40.7596C210.345 40.3607 210.214 40.0946 209.814 40.0946H199.845C199.446 40.0946 199.181 40.3607 199.181 40.7596V106.704C199.181 107.103 199.446 107.369 199.845 107.369H211.143C211.542 107.369 211.807 107.103 211.807 106.704V70.1418C211.807 59.7733 218.187 50.067 229.352 50.067H236.132C236.529 50.067 236.796 49.8009 236.796 49.4026V39.4302C236.796 39.0318 236.529 38.7652 236.132 38.7652ZM294.447 73.732C294.447 59.9055 286.871 50.067 274.109 50.067C261.484 50.067 253.774 59.9055 253.774 73.732C253.774 87.5582 261.484 97.3985 274.109 97.3985C286.871 97.3985 294.447 87.5582 294.447 73.732ZM307.074 73.732C307.074 94.4735 294.846 108.698 274.109 108.698C253.243 108.698 241.148 94.4735 241.148 73.732C241.148 52.8576 253.243 38.7652 274.109 38.7652C294.846 38.7652 307.074 52.9921 307.074 73.732ZM379.391 70.1418V106.704C379.391 107.103 379.125 107.369 378.727 107.369H367.427C367.03 107.369 366.763 107.103 366.763 106.704V70.1418C366.763 60.0372 362.243 50.067 349.086 50.067C337.92 50.067 331.542 59.7733 331.542 70.1418V106.704C331.542 107.103 331.276 107.369 330.877 107.369H319.579C319.18 107.369 318.913 107.103 318.913 106.704V40.7596C318.913 40.3607 319.18 40.0946 319.579 40.0946H329.548C329.946 40.0946 330.079 40.3607 330.213 40.7596L331.542 46.7436C331.674 47.5403 332.736 47.2742 333.003 46.8759C335.661 42.8875 341.509 38.7652 350.415 38.7652C369.687 38.7652 379.391 52.8576 379.391 70.1418Z" fill="black"/>
<path d="M0.631362 93.1583H32.5182C32.8668 93.1583 33.1495 92.8756 33.1495 92.5266V27.4738C33.1495 27.1249 32.8668 26.8421 32.5182 26.8421H0.631362C0.282702 26.8421 0 27.1249 0 27.4738V38.8424C0 39.1907 0.282702 39.4735 0.631362 39.4735H20.5212V80.5264H0.631362C0.282702 80.5264 0 80.8092 0 81.1581V92.5266C0 92.8756 0.282702 93.1583 0.631362 93.1583Z" fill="black"/>
<path d="M106.71 0H0.631362C0.282702 0 0 0.282776 0 0.631676V12.0002C0 12.3491 0.282702 12.6313 0.631362 12.6313H47.3562V107.369H0.631362C0.282702 107.369 0 107.651 0 108V119.368C0 119.717 0.282702 120 0.631362 120H106.71C107.059 120 107.341 119.717 107.341 119.368V108C107.341 107.651 107.059 107.369 106.71 107.369H59.9848V12.6313H106.71C107.059 12.6313 107.341 12.3491 107.341 12.0002V0.631676C107.341 0.282776 107.059 0 106.71 0Z" fill="black"/>
<path d="M106.71 26.8421H74.8229C74.4747 26.8421 74.192 27.1249 74.192 27.4738V92.5266C74.192 92.8756 74.4747 93.1583 74.8229 93.1583H106.71C107.059 93.1583 107.341 92.8756 107.341 92.5266V81.1581C107.341 80.8092 107.059 80.5264 106.71 80.5264H86.8201V39.4735H106.71C107.059 39.4735 107.341 39.1907 107.341 38.8424V27.4738C107.341 27.1249 107.059 26.8421 106.71 26.8421Z" fill="black"/>
</svg>
