<svg width="621" height="120" viewBox="0 0 621 120" fill="none" xmlns="http://www.w3.org/2000/svg">
<g clip-path="url(#clip0_749_11190)">
<path fill-rule="evenodd" clip-rule="evenodd" d="M0 120H118.855V0H0V120ZM125.459 120H244.313V0H125.459V120ZM369.772 120H250.918V0H369.772V120ZM376.376 120H495.231V0H376.376V120ZM620.69 120H501.835V0H620.69V120Z" fill="black"/>
<path fill-rule="evenodd" clip-rule="evenodd" d="M51.0803 57.745V30H36.6456V90H51.0803V62.26L66.2798 90H82.2092L65.674 60L82.2092 30H66.2798L51.0803 57.745ZM174.151 81.365L171.569 90H156.156L175.755 30H194.107L213.622 90H197.762L195.18 81.365H174.151ZM184.663 47.18L177.711 69.58H191.614L184.663 47.18ZM317.694 90H303.264V63.55L283.75 30H300.945L310.568 48.44L320.013 30H336.94L317.694 63.55V90ZM425.068 81.365L422.486 90H407.068L426.672 30H445.025L464.539 90H448.679L446.097 81.365H425.068ZM435.58 47.18L428.628 69.58H442.532L435.58 47.18ZM552.915 57.745V30H538.481V90H552.915V62.26L568.115 90H584.044L567.509 60L584.044 30H568.115L552.915 57.745Z" fill="#FAFAFC"/>
</g>
<defs>
<clipPath id="clip0_749_11190">
<rect width="620.69" height="120" fill="white"/>
</clipPath>
</defs>
</svg>
