<svg width="360" height="107" viewBox="0 0 360 107" fill="none" xmlns="http://www.w3.org/2000/svg">
<g clip-path="url(#clip0_749_11128)">
<path d="M204.413 21.36C206.334 21.36 208.193 20.6149 209.556 19.3109C210.919 18.007 211.724 16.1442 211.786 14.2814C211.786 12.3565 210.981 10.4937 209.618 9.12767C208.255 7.76163 206.396 6.95442 204.475 6.95442C202.554 7.01651 200.757 7.76163 199.394 9.18977C198.031 10.5558 197.287 12.4186 197.349 14.2814C197.349 16.1442 198.093 17.9449 199.456 19.3109C200.757 20.5528 202.554 21.2979 204.413 21.36ZM254.354 28.1902H272.076V29.6184C271.084 29.8047 270.155 30.1151 269.287 30.6119C267.676 31.357 264.454 35.0205 261.914 41.1677C257.7 51.7856 253.301 64.3905 248.654 78.796L246.919 84.2602C246.175 86.744 245.494 88.3584 245.184 89.2898C244.874 90.2833 244.44 91.7735 243.697 93.5742C243.263 94.9402 242.706 96.3063 242.024 97.5481C241.157 99.1626 239.545 102.453 238.244 103.447C236.2 105.186 233.163 107.11 229.384 106.8C222.01 106.8 216.496 101.336 216.434 94.8781C216.434 90.4695 219.222 87.5512 223.435 87.5512C226.471 87.5512 229.136 89.1656 229.136 92.5807C229.136 95.0644 226.657 97.6102 226.657 98.9142C226.657 102.267 228.578 103.82 232.358 103.82C235.394 103.82 237.873 101.895 239.731 98.0449C242.21 93.6363 242.458 88.793 240.351 83.3909L224.798 42.4095C221.205 32.9714 218.54 29.8667 215.194 29.4942V28.066H239.731V29.4942C236.819 29.8047 235.332 31.5433 235.332 34.6479C235.332 36.8833 236.2 40.3605 237.811 44.7691L240.723 52.717C244.069 61.3479 246.795 68.8612 248.158 73.5802C251.318 63.7695 254.231 55.2007 257.019 47.6874C259.064 42.0991 260.055 38.1251 260.055 35.7656C260.055 31.5433 257.762 29.6184 254.354 29.6184V28.1902ZM83.7727 80.5346C80.6126 79.9758 77.9482 77.1816 77.9482 71.2828V0L60.1031 3.84977V5.34C63.1393 5.02954 66.1754 7.69954 66.1754 13.4121V71.2828C66.1754 76.8712 63.1393 80.1 60.1031 80.5346C59.7933 80.5967 59.5455 80.5967 59.2357 80.6588C57.6866 80.783 56.1376 80.4726 54.7124 79.8516C52.2959 78.796 50.3131 76.9333 48.6402 74.2012L40.3992 61.0995C38.6642 58.3053 36.0618 56.1942 33.0257 55.0144C29.9895 53.8346 26.6436 53.6484 23.4835 54.5177L32.7778 44.2723C39.7796 36.5107 46.2856 31.6053 52.4198 29.5563V28.1281H31.9723V29.5563C37.2391 31.6053 36.9293 36.1381 30.857 43.2167L17.845 58.3674V0L-0.000122188 3.84977V5.34C3.03602 5.34 6.07217 8.32046 6.07217 13.5984V71.2207C6.07217 77.6163 3.09798 80.1 -0.000122188 80.5346V81.9628H23.6694V80.5346C19.7658 79.9758 17.845 76.9954 17.845 71.2828V60.6649L22.9259 55.0765L35.1944 75.1946C38.1066 80.0379 40.8329 81.9628 45.1083 81.9628H86.2512V80.8451C86.3131 80.8451 85.1358 80.783 83.7727 80.5346ZM132.847 73.7665V49.6744C132.599 33.9649 125.969 26.7621 110.788 26.7621C105.955 26.7 101.246 28.3144 97.4044 31.2949C93.3768 34.3374 91.456 37.7526 91.456 41.7265C91.456 45.5763 93.6247 48.4946 97.1565 48.4946C100.936 48.4946 103.663 46.3214 103.663 43.3409C103.663 41.1056 102.175 37.9388 102.175 35.8277C102.175 31.9779 105.088 28.6249 110.169 28.6249C116.675 28.6249 121.322 33.4681 121.322 44.2102V50.6679L115.931 51.9719C113.143 52.5307 110.726 53.0895 108.929 53.5863C107.07 54.1451 104.716 54.8902 101.928 55.9458C96.289 58.1191 93.3149 60.1681 90.7124 64.0179C89.4112 65.8807 88.7916 68.116 88.7916 70.3514C88.7916 79.2928 95.0498 83.3909 103.786 83.3909C110.726 83.3909 118.038 79.7274 121.384 72.8351C121.446 75.0084 121.941 77.1195 122.933 79.1065C126.589 86.4956 138.733 82.1491 138.733 82.1491V80.7209C133.28 81.5281 132.847 75.2567 132.847 73.7665ZM121.322 66.3154C121.322 69.8546 120.021 72.773 117.418 74.8221C114.94 76.8712 112.337 77.9267 109.611 77.9267C104.344 77.9267 100.874 74.5116 100.874 68.116C100.874 65.1356 102.547 62.3414 103.91 60.727C105.026 59.6093 106.265 58.6779 107.69 58.057C109.549 57.0635 110.416 56.5667 111.718 56.0079L116.675 54.2072C119.153 53.2137 120.64 52.717 121.322 52.4065V66.3154ZM360 28.1902H317.99V0H360L351.201 14.0951L360 28.1902ZM274.554 75.0705C269.349 69.7305 266.437 62.5277 266.561 55.0144C266.499 51.3509 267.181 47.6874 268.544 44.2723C269.907 40.8572 271.952 37.7526 274.554 35.0826C279.883 29.4942 286.327 26.7 293.948 26.7C301.384 26.7 307.89 29.4942 313.218 35.0826C315.821 37.6905 317.928 40.7951 319.291 44.2102C320.716 47.6253 321.397 51.2888 321.336 55.0144C321.397 58.74 320.716 62.4035 319.291 65.8186C317.866 69.2337 315.821 72.4005 313.218 75.0084C307.89 80.4726 301.446 83.3288 293.948 83.3288C286.389 83.3909 279.883 80.5967 274.554 75.0705ZM303.676 36.014C301.57 31.8537 298.719 29.4321 295.435 28.7491C288.743 27.383 282.857 34.2753 280.626 45.1416C279.697 50.047 279.449 55.0144 279.945 59.9198C280.44 64.8872 281.804 69.6684 284.034 74.1391C286.203 78.2993 288.991 80.7209 292.275 81.404C298.967 82.77 305.039 75.6293 307.27 64.6388C309.129 55.4491 308.2 44.2723 303.676 36.014Z" fill="black"/>
<path d="M210.671 71.283V28.1904H172.626V29.4944C177.707 30.2395 180.124 34.0893 177.831 40.2365C165.935 72.4007 166.678 70.9725 165.935 73.5183C165.191 71.0346 163.456 64.9495 160.668 57.3121C157.879 49.6746 156.021 44.6451 155.277 42.3476C152.365 33.4062 153.356 30.1153 158.065 29.5565V28.1283H133.404V29.5565C137.06 30.3016 140.344 34.5239 143.009 42.0372L146.788 51.8479C150.94 62.4037 155.835 76.9955 157.446 81.963H165.625C168.289 74.3255 178.823 43.7758 180.248 40.6711C181.797 37.1318 183.532 34.4618 185.453 32.599C186.382 31.6055 187.497 30.7983 188.799 30.3016C190.038 29.8049 191.401 29.4944 192.764 29.5565C192.764 29.5565 198.712 29.5565 198.712 35.269V71.3451C198.712 77.3681 195.8 80.1623 192.764 80.5969V82.0251H216.31V80.5969C213.274 80.1002 210.671 77.306 210.671 71.283Z" fill="black"/>
</g>
<defs>
<clipPath id="clip0_749_11128">
<rect width="359.654" height="106.697" fill="white" transform="scale(1.00096)"/>
</clipPath>
</defs>
</svg>
