<svg width="742" height="238" viewBox="0 0 742 238" fill="none" xmlns="http://www.w3.org/2000/svg">
<g clip-path="url(#clip0_749_11336)">
<path fill-rule="evenodd" clip-rule="evenodd" d="M159.53 62.0729L164.877 71.3713C165.417 72.3142 165.702 73.3812 165.702 74.4669C165.702 75.5525 165.417 76.6195 164.877 77.5625L133.119 132.734L148.112 158.764C149.257 160.778 150.918 162.454 152.927 163.621C154.935 164.787 157.219 165.401 159.544 165.401C161.869 165.401 164.152 164.787 166.161 163.621C168.169 162.454 169.831 160.778 170.975 158.764L185.964 132.734L181.91 125.707L164.9 155.255C164.358 156.193 163.576 156.972 162.635 157.513C161.694 158.055 160.626 158.34 159.539 158.34C158.452 158.34 157.384 158.055 156.443 157.513C155.502 156.972 154.721 156.193 154.178 155.255L141.235 132.734L170.739 81.4868L176.09 90.7713C176.631 91.7168 176.915 92.7859 176.915 93.8738C176.915 94.9616 176.631 96.0308 176.09 96.9763L155.5 132.725L159.553 139.751L181.924 100.91L196.63 126.39C197.735 128.321 198.317 130.505 198.317 132.727C198.317 134.949 197.735 137.133 196.63 139.064L181.683 164.959C179.392 168.921 172.343 177.771 159.521 177.771C146.698 177.771 139.7 168.921 137.404 164.959L122.504 139.077C121.396 137.145 120.814 134.959 120.814 132.734C120.814 130.509 121.396 128.323 122.504 126.39L159.53 62.0729Z" fill="black"/>
<path fill-rule="evenodd" clip-rule="evenodd" d="M278.19 106.649C266.243 106.681 256.56 115.038 256.56 128.418C256.56 141.797 264.908 150.001 278.273 150.001C283.578 150.001 289.143 152.711 289.143 158.621C289.143 164.531 284.367 167.855 278.273 167.855C272.179 167.855 267.074 164.189 267.074 158.621H256.56C256.56 170.2 265.835 177.781 278.273 177.781C290.711 177.781 299.745 170.463 299.745 158.621C299.745 153.136 298.001 148.002 290.878 144.429C297.913 141.197 299.916 133.718 299.916 128.408C299.916 115.02 290.178 106.649 278.19 106.649ZM278.273 141.22C272.11 141.22 267.074 135.911 267.074 128.418C267.074 120.924 272.11 115.421 278.273 115.421C284.436 115.421 289.403 120.994 289.403 128.399C289.403 135.805 284.367 141.192 278.273 141.192V141.22ZM536.271 132.965C537.458 138.044 542.114 142.494 549.595 142.494C553.499 142.494 558.633 140.583 561.063 138.071L567.843 144.738C563.326 149.42 555.943 151.663 549.423 151.663C536.049 151.64 526.361 142.771 526.361 129.101C526.361 116.1 536.359 106.681 548.667 106.635C561.652 106.58 572.397 115.504 571.233 132.951H536.271V132.965ZM561.175 124.876C559.969 119.798 554.891 115.398 548.797 115.398C545.963 115.423 543.212 116.359 540.956 118.067C538.699 119.776 537.058 122.164 536.276 124.876H561.175ZM487.401 132.965C488.584 138.044 493.244 142.494 500.72 142.494C504.629 142.494 509.759 140.583 512.193 138.071L518.973 144.738C514.452 149.42 507.069 151.663 500.548 151.663C487.183 151.64 477.491 142.771 477.491 129.101C477.491 116.1 487.485 106.681 499.797 106.635C512.782 106.58 523.523 115.504 522.359 132.951H487.401V132.965ZM512.3 124.876C511.094 119.798 506.016 115.398 499.927 115.398C497.093 115.423 494.342 116.359 492.086 118.067C489.829 119.776 488.188 122.164 487.406 124.876H512.3ZM330.51 106.585C325.668 106.585 320.998 108.057 317.2 112.993V88.7589H306.682V150.56H317.228V128.732C317.228 122.328 321.546 117.037 327.774 117.037C333.39 117.037 337.457 120.329 337.457 128.118V150.537H347.993V127.379C347.993 114.821 342.637 106.603 330.538 106.603L330.51 106.585ZM451.688 106.64C446.846 106.64 441.142 108.722 437.859 113.468L437.516 107.614H427.313V169.48L437.859 168.34V145.528C440.869 150.2 447.435 151.673 451.934 151.673C465.6 151.673 473.54 141.46 473.54 128.995C473.54 116.428 464.821 106.649 451.674 106.649L451.688 106.64ZM450.913 142.513C443.748 142.513 438.819 135.902 438.819 129.244C438.819 122.587 443.303 115.393 450.913 115.393C458.523 115.393 463.017 122.573 463.017 129.244C463.017 135.915 458.092 142.513 450.913 142.513ZM596.772 151.663C601.618 151.663 607.318 149.595 610.601 144.835L610.958 150.537H621.161V88.8697H610.615V112.808C607.605 108.136 600.932 106.737 596.443 106.737C582.79 106.737 574.925 116.871 574.925 129.359C574.925 141.917 583.653 151.696 596.791 151.696L596.772 151.663ZM597.546 115.791C604.725 115.791 609.655 122.402 609.655 129.073C609.655 135.745 605.157 142.924 597.546 142.924C589.936 142.924 585.452 135.758 585.452 129.073C585.452 122.388 590.382 115.791 597.546 115.791ZM373.657 143.293C372.322 143.293 371.338 142.873 370.698 142.023C370.059 141.174 369.729 139.826 369.729 137.947V116.839H378.23L379.199 107.656H369.827V95.8734L359.16 97.0092V107.656H351.147V116.839H359.174L359.216 138.164C359.216 142.578 360.253 145.922 362.328 148.196C364.402 150.471 367.462 151.63 371.505 151.673C373.327 151.668 375.138 151.405 376.885 150.892C378.611 150.418 380.246 149.665 381.726 148.663L378.1 141.908C376.775 142.77 375.239 143.257 373.657 143.316V143.293ZM417.078 127.563C412.793 124.904 407.715 124.549 402.809 124.244C399.924 124.073 395.449 123.376 395.449 119.627C395.449 116.936 398.231 115.375 403.305 115.375C407.414 115.375 410.91 116.331 413.971 119.193L419.921 112.268C414.936 107.937 409.867 106.649 403.133 106.649C395.277 106.649 384.959 110.116 384.959 119.983C384.968 121.999 385.493 123.98 386.485 125.739C387.476 127.497 388.901 128.975 390.626 130.034C394.628 132.527 399.729 132.873 404.242 133.339C407.251 133.653 412.19 134.424 411.397 138.598C410.827 141.534 407.349 142.37 404.798 142.481C402.094 142.637 399.382 142.388 396.752 141.742C393.969 141.017 391.651 139.637 389.262 138.048L383.925 144.9L384.569 145.431C391.498 151.1 401.074 152.975 409.751 151.012C416.271 149.54 421.92 144.771 421.92 137.647C421.92 133.635 420.552 129.72 417.078 127.563ZM239.991 150.546H250.536V107.688H239.991V150.546ZM239.063 93.9759C239.075 92.7632 239.447 91.5811 240.132 90.5783C240.817 89.5754 241.784 88.7965 242.912 88.3396C244.041 87.8826 245.28 87.768 246.473 88.0102C247.667 88.2523 248.762 88.8404 249.621 89.7005C250.48 90.5606 251.064 91.6543 251.3 92.844C251.536 94.0337 251.414 95.2664 250.948 96.387C250.482 97.5076 249.694 98.4661 248.683 99.142C247.671 99.8179 246.482 100.181 245.263 100.186C244.452 100.187 243.649 100.028 242.9 99.7184C242.151 99.4085 241.471 98.9537 240.9 98.3804C239.738 97.2134 239.086 95.6372 239.086 93.9944L239.063 93.9759ZM231.337 150.611V88.7912H220.889V150.611H231.337Z" fill="black"/>
</g>
<defs>
<clipPath id="clip0_749_11336">
<rect width="741.026" height="237.128" fill="white" transform="scale(1.00131)"/>
</clipPath>
</defs>
</svg>
