<svg width="470" height="86" viewBox="0 0 470 86" fill="none" xmlns="http://www.w3.org/2000/svg">
<g clip-path="url(#clip0_749_11149)">
<path d="M9.74359 67.6159C8.01199 67.6197 6.31041 67.1637 4.8127 66.2946C3.31499 65.4255 2.07482 64.1744 1.21889 62.6691C0.376069 61.1744 -0.0442689 59.4786 0.00290427 57.7633C0.0500775 56.048 0.562985 54.3778 1.48669 52.9317L19.0419 25.3636C19.9404 23.8819 21.2161 22.6654 22.7386 21.8381C24.2612 21.0108 25.976 20.6025 27.7079 20.6548C29.4386 20.6963 31.1272 21.1968 32.6008 22.1052C34.0745 23.0136 35.2804 24.2973 36.095 25.8248C37.7315 28.9193 37.527 32.6424 35.5669 35.5473L18.0228 63.1154C17.1331 64.5018 15.9079 65.6412 14.4606 66.4279C13.0133 67.2146 11.3909 67.6232 9.74359 67.6159Z" fill="black"/>
<path d="M39.8555 67.6149C36.3147 67.6149 33.0565 65.7217 31.3456 62.6793C30.5047 61.1887 30.0853 59.4973 30.1325 57.7865C30.1797 56.0756 30.6916 54.4099 31.6134 52.9679L49.1352 25.463C50.0205 23.9606 51.2916 22.7223 52.8167 21.8767C54.3418 21.0311 56.0654 20.6088 57.8087 20.6539C61.3792 20.732 64.615 22.7293 66.2515 25.8536C67.8769 28.9779 67.6389 32.7233 65.6193 35.6207L48.1012 63.1256C47.2143 64.5061 45.994 65.641 44.5529 66.4256C43.1118 67.2102 41.4963 67.6192 39.8555 67.6149Z" fill="black"/>
<path d="M69.2942 67.8466C74.2857 67.8466 78.3322 63.885 78.3322 58.9981C78.3322 54.1113 74.2857 50.1497 69.2942 50.1497C64.3027 50.1497 60.2562 54.1113 60.2562 58.9981C60.2562 63.885 64.3027 67.8466 69.2942 67.8466Z" fill="black"/>
<path d="M461.929 50.662C464.659 50.662 466.291 52.6035 466.291 55.7836V66.6814H470V55.5344C470 50.1264 467.452 46.9909 462.661 46.9909C460.787 46.9909 457.811 47.5042 456.037 50.9521C455.625 49.9351 454.945 49.0488 454.069 48.3874C453.194 47.7259 452.155 47.314 451.065 47.1955C450.378 47.0698 449.678 47.0285 448.982 47.0728C447.457 47.1955 444.742 48.144 443.726 50.2938V47.4038H440.014V66.6814H443.726V56.2783C443.726 52.2316 446.374 50.662 449.026 50.662C451.511 50.662 453.144 52.5626 453.144 55.7427V66.6814H456.833V56.2783C456.833 53.0573 458.767 50.6248 461.929 50.662ZM426.39 63.4604C428.087 63.4976 429.723 62.8207 430.909 61.5933C432.1 60.3659 432.732 58.6959 432.669 56.9812C432.669 53.0982 429.812 50.662 426.39 50.662C422.965 50.662 420.112 53.0982 420.112 56.9812C420.045 58.6922 420.678 60.3584 421.86 61.5821C423.043 62.8095 424.672 63.4902 426.361 63.4604H426.39ZM426.39 67.0757C420.968 67.0757 416.441 63.0699 416.441 56.9589C416.441 50.848 420.968 46.9686 426.39 46.9686C431.813 46.9686 436.377 50.848 436.377 56.9589C436.377 63.0699 431.787 67.0943 426.364 67.0943L426.39 67.0757ZM397.343 56.9589L397.305 56.9812C397.305 50.8703 401.951 46.9909 407.411 46.9686C408.782 46.9421 410.144 47.2038 411.408 47.7369C412.672 48.2699 413.811 49.0625 414.749 50.0632L411.937 52.4585C411.34 51.872 410.632 51.4096 409.856 51.0981C409.079 50.7866 408.248 50.632 407.411 50.6434C403.989 50.6434 401.014 53.0796 401.014 56.9589C401.014 59.5811 402.572 61.9429 404.963 62.9471C407.355 63.9514 410.107 63.3935 411.937 61.5412L414.79 63.9365C413.848 64.9475 412.705 65.7494 411.434 66.2902C410.163 66.8309 408.792 67.0986 407.411 67.0757C401.992 67.0757 397.343 63.0699 397.343 56.9589ZM385.467 62.9806C385.463 62.6436 385.525 62.3091 385.651 61.9962C385.776 61.6833 385.962 61.3982 386.197 61.1571C386.433 60.9161 386.714 60.7238 387.023 60.5912C387.333 60.4586 387.666 60.3884 388.003 60.3845C388.34 60.3884 388.673 60.4586 388.983 60.5912C389.293 60.7238 389.574 60.9161 389.809 61.1571C390.045 61.3982 390.231 61.6833 390.356 61.9962C390.481 62.3091 390.544 62.6436 390.54 62.9806C390.507 63.6333 390.226 64.2488 389.755 64.7015C389.283 65.1543 388.657 65.4101 388.003 65.4168C387.35 65.4101 386.723 65.1543 386.252 64.7015C385.781 64.2488 385.5 63.6333 385.467 62.9806Z" fill="black"/>
<path fill-rule="evenodd" clip-rule="evenodd" d="M395.613 22.8973H382.406L373.149 46.7646L363.939 22.8973H350.732L366.788 60.6119L356.802 85.5467H369.913L395.613 22.8973ZM315.291 43.8746C315.291 49.9 320.557 53.8649 325.731 53.8649C330.815 53.8649 335.81 50.1753 335.81 43.8709C335.81 37.5665 330.815 33.8732 325.731 33.8732C320.557 33.8732 315.291 37.8455 315.291 43.8746ZM335.81 64.9338V60.1618C333.132 64.216 326.884 65.7484 323.678 65.7484C313.063 65.7484 302.444 57.3797 302.444 43.8709C302.444 30.3658 313.059 21.9972 323.678 21.9972C326.352 21.9972 332.6 22.8898 335.81 27.5763V22.9121H348.121V64.9413L335.81 64.9338ZM298.94 64.9338H286.63V59.7118C284.573 63.58 279.585 65.8339 274.408 65.8339C263.7 65.8339 254.242 57.283 254.242 44.042C254.242 30.5518 263.7 21.9897 274.408 21.9897C279.578 21.9897 284.58 24.147 286.63 28.0189V0.000671461H298.94V64.9338ZM286.362 43.7779C286.362 37.4773 281.813 33.7839 276.729 33.7839C271.462 33.7839 267.088 37.7451 267.088 43.7779C267.088 50.0042 271.462 53.9467 276.725 53.9467C281.906 53.9542 286.362 49.8108 286.362 43.7779ZM223.803 42.6919C223.803 36.3019 227.105 34.141 231.476 34.141C235.667 34.141 238.702 36.9305 238.702 42.5096V64.9264H251.102V39.8131C251.102 27.8441 245.211 21.9897 235.842 21.9897C230.936 21.9897 226.03 24.7793 223.799 29.0119V22.8973H211.406V64.9264H223.803V42.6919ZM186.226 65.648C174.451 65.648 164.628 57.0078 164.628 43.7742C164.628 30.5332 174.44 21.9786 186.226 21.9786C198.013 21.9786 207.91 30.5332 207.91 43.7742C207.91 57.0152 198.002 65.648 186.226 65.648ZM186.226 53.4112C191.396 53.4112 195.684 49.6248 195.684 43.7779C195.684 38.1059 191.4 34.234 186.226 34.234C184.981 34.2145 183.744 34.4488 182.592 34.9226C181.439 35.3964 180.396 36.0998 179.524 36.99C178.647 37.885 177.959 38.9471 177.501 40.1132C177.043 41.2792 176.824 42.5255 176.857 43.7779C176.861 49.6323 181.142 53.4112 186.226 53.4112ZM142.398 34.1447C146.054 34.1447 149.267 37.0272 149.267 42.5133V64.9338H161.578V41.0628C161.578 28.3722 155.408 21.9823 145.518 21.9823C142.58 21.9823 137.046 22.8749 133.029 29.4508C130.708 24.5896 126.248 22.0678 119.658 22.0678C117.369 22.0562 115.126 22.7038 113.196 23.9333C111.267 25.1627 109.732 26.922 108.775 29.0008V22.901H96.3673V64.9301H108.764V42.6919C108.764 36.3019 112.245 34.141 115.99 34.141C119.561 34.141 122.767 36.9305 122.86 42.2418V64.9301H135.26V42.6919C135.26 36.5809 138.474 34.1447 142.398 34.1447Z" fill="black"/>
</g>
<defs>
<clipPath id="clip0_749_11149">
<rect width="469.948" height="85.5366" fill="white"/>
</clipPath>
</defs>
</svg>
