<svg width="355" height="124" viewBox="0 0 355 124" fill="none" xmlns="http://www.w3.org/2000/svg">
<g clip-path="url(#clip0_749_11136)">
<path d="M7.47783 5.30812L75.5654 0.19672C83.8304 -0.589648 85.995 0.000128148 91.3082 3.73538L113.151 19.0696C116.693 21.6253 117.874 22.4116 117.874 25.3605V109.305C117.874 114.613 115.906 117.759 109.216 118.152L30.1081 122.87C24.9917 123.067 22.6303 122.477 20.0721 119.135L4.13248 98.4928C1.18071 94.5609 0 91.8087 0 88.4666V13.7616C0 9.43655 1.96785 5.7013 7.47783 5.30812Z" fill="white"/>
<path fill-rule="evenodd" clip-rule="evenodd" d="M75.5654 0.196659L7.47783 5.30805C1.96785 5.70124 0 9.43649 0 13.7615V88.4665C0 91.8086 1.18071 94.7575 4.13248 98.4927L20.0721 119.331C22.6303 122.674 25.1885 123.46 30.1081 123.067L109.216 118.349C115.906 117.955 117.874 114.81 117.874 109.502V25.3604C117.874 22.6082 116.89 21.8218 113.545 19.4627C113.348 19.2661 113.151 19.2661 112.955 19.0695L91.3082 3.93191C86.1918 6.69992e-05 84.0272 -0.393117 75.5654 0.196659ZM31.8792 23.9843C25.3853 24.3775 24.0078 24.5741 20.2688 21.4286L11.02 14.1547C10.036 13.1717 10.4296 11.9922 12.9878 11.7956L78.5172 7.07738C84.0272 6.6842 86.7822 8.45353 88.9468 10.2229L100.164 18.2831C100.754 18.4797 101.935 19.8559 100.36 19.8559L32.6663 23.9843H31.8792ZM24.4013 108.716V37.3526C24.4013 34.2071 25.3853 32.831 28.1402 32.6344L105.87 28.1127C108.428 27.9161 109.609 29.4889 109.609 32.6344V103.408C109.609 106.553 109.019 109.109 104.886 109.305L30.5017 113.63C26.3692 114.023 24.4013 112.451 24.4013 108.716ZM97.8021 41.2844C98.1957 43.4469 97.8021 45.6094 95.6375 45.806L92.0953 46.5924V99.2791C88.9468 101.048 86.1918 101.835 83.8304 101.835C80.0915 101.835 79.1075 100.655 76.1558 97.1166L52.5416 60.1573V95.7404L60.0194 97.5098C60.0194 97.5098 60.0194 101.835 54.1159 101.835L37.5859 102.818C37.1924 101.835 37.5859 99.4757 39.1602 99.0825L43.4895 97.9029V50.7208L37.5859 50.1311C37.1924 47.9685 38.3731 44.8231 41.7184 44.6265L59.4291 43.4469L83.8304 80.7994V47.772L77.5333 46.9856C77.1397 44.4299 78.9108 42.464 81.2722 42.2674L97.8021 41.2844Z" fill="black"/>
<path d="M170.219 87.2873V54.8496H170.809L194.226 87.2873H201.704V39.5154H193.439V71.9531H192.849L169.432 39.5154H161.954V87.2873H170.219ZM224.728 87.8771C235.551 87.8771 242.045 80.7997 242.045 69.0042C242.045 57.4053 235.354 50.1314 224.728 50.1314C213.905 50.1314 207.411 57.2087 207.411 69.0042C207.214 80.7997 213.905 87.8771 224.728 87.8771ZM224.728 80.9963C219.021 80.9963 215.676 76.6713 215.676 69.0042C215.676 61.5337 219.021 57.0121 224.728 57.0121C230.435 57.0121 233.78 61.3371 233.78 69.0042C233.583 76.6713 230.435 80.9963 224.728 80.9963ZM249.523 42.2677V51.3109H243.816V57.7985H249.523V77.4577C249.523 84.535 252.868 87.2873 261.133 87.2873C262.708 87.2873 264.282 87.0907 265.463 86.8941V80.6031C264.479 80.7997 263.888 80.7997 262.708 80.7997C259.362 80.7997 257.788 79.227 257.788 75.6883V57.995H265.463V51.5075H257.788V42.4643H249.523V42.2677ZM270.382 87.2873H278.647V51.1143H270.382V87.2873ZM274.515 45.02C277.27 45.02 279.434 42.8575 279.434 40.1052C279.434 37.3529 277.27 35.1904 274.515 35.1904C271.76 35.1904 269.595 37.3529 269.595 40.1052C269.595 42.8575 271.76 45.02 274.515 45.02ZM301.081 87.8771C311.904 87.8771 318.398 80.7997 318.398 69.0042C318.398 57.4053 311.707 50.1314 301.081 50.1314C290.258 50.1314 283.764 57.2087 283.764 69.0042C283.567 80.7997 290.258 87.8771 301.081 87.8771ZM301.081 80.9963C295.374 80.9963 292.029 76.6713 292.029 69.0042C292.029 61.5337 295.374 57.0121 301.081 57.0121C306.787 57.0121 310.133 61.3371 310.133 69.0042C309.936 76.6713 306.787 80.9963 301.081 80.9963ZM323.317 87.2873H331.582V66.0553C331.582 60.7473 334.731 57.4053 339.454 57.4053C344.373 57.4053 346.735 60.1576 346.735 65.6621V87.0907H355V63.6962C355 55.0462 350.67 50.1314 342.602 50.1314C337.289 50.1314 333.55 52.6871 331.779 56.6189H331.189V51.1143H323.317V87.2873Z" fill="black"/>
</g>
<defs>
<clipPath id="clip0_749_11136">
<rect width="354.922" height="123.04" fill="white"/>
</clipPath>
</defs>
</svg>
