<svg width="360" height="96" viewBox="0 0 360 96" fill="none" xmlns="http://www.w3.org/2000/svg">
<g clip-path="url(#clip0_749_11069)">
<path d="M24.9024 32.2907C16.3462 32.2907 12.132 39.8208 12.132 49.9035V75.1741H0V21.9528H11.8766V35.7367H12.132C14.6861 27.1856 19.6665 20.4212 27.4565 20.4212C32.9479 20.4212 35.2465 22.3357 35.2465 22.3357L29.7552 33.3118C29.7552 33.3118 28.0951 32.2907 24.9024 32.2907ZM170.869 39.6932V75.3017H159.12V44.0326C159.12 35.0986 156.311 30.3763 149.159 30.3763C141.752 30.3763 138.177 36.3749 138.177 47.8615V75.3017H126.428V44.0326C126.428 35.4814 123.618 30.3763 116.595 30.3763C108.421 30.3763 105.357 37.5235 105.357 47.8615V75.3017H93.48V21.9528H105.357V34.0775H105.484C107.272 25.7816 112.38 20.5489 120.936 20.5489C129.365 20.5489 134.856 25.1435 137.027 33.1841C139.071 25.3988 144.306 20.5489 152.48 20.5489C163.59 20.5489 170.869 27.5685 170.869 39.6932ZM58.9996 20.4212C48.017 20.4212 40.9933 25.5264 37.6729 34.8433L47.7616 38.5445C49.5495 32.9289 53.3806 29.7381 59.2551 29.7381C65.768 29.7381 69.7268 32.6736 69.7268 37.013C69.7268 41.48 66.6619 42.501 59.7659 43.6497C52.1036 44.926 33.7141 45.3089 33.7141 60.752C33.7141 69.8136 41.2487 76.578 52.6144 76.578C61.1706 76.578 67.045 73.132 69.7268 66.6229H69.8546V75.3017H81.6034V42.501C81.4757 28.079 74.3242 20.4212 58.9996 20.4212ZM69.9823 50.1588C69.9823 61.3901 64.491 68.5374 55.5516 68.5374C49.2941 68.5374 45.5906 65.0914 45.5906 59.9862C45.5906 55.2639 49.4218 51.9456 56.8287 50.5417C64.3633 49.1377 68.1944 47.4786 69.9823 43.2668V50.1588ZM212.756 20.5489C203.817 20.5489 197.815 25.5264 195.261 32.9289V21.9528H182.746V95.7223H195.133V64.3256H195.261C198.07 72.3662 203.817 76.8332 212.756 76.8332C227.059 76.8332 237.276 65.0914 237.276 48.4996C237.276 31.9078 227.059 20.5489 212.756 20.5489ZM209.691 66.8782C199.858 66.8782 194.367 59.731 194.367 48.6272C194.367 37.5235 200.497 30.3763 209.691 30.3763C218.886 30.3763 225.016 37.9064 225.016 48.6272C225.016 59.3481 218.886 66.8782 209.691 66.8782Z" fill="black"/>
<path d="M360 74.9189V75.3018H311.6V74.9189C318.624 70.9624 323.349 67.0059 327.691 62.7942H347.613L360 74.9189ZM347.996 11.9979L335.736 0.000733126H335.353C335.353 0.000733126 335.608 22.3358 314.92 42.7564C294.743 62.6666 271.117 62.7942 271.117 62.7942V63.1771L283.632 75.4295C283.632 75.4295 307.002 75.6847 327.563 55.3917C348.123 35.2263 347.996 11.9979 347.996 11.9979Z" fill="black"/>
</g>
<defs>
<clipPath id="clip0_749_11069">
<rect width="359.654" height="95.6298" fill="white" transform="scale(1.00096)"/>
</clipPath>
</defs>
</svg>
