<svg width="180" height="102" viewBox="0 0 180 102" fill="none" xmlns="http://www.w3.org/2000/svg">
<g clip-path="url(#clip0_749_11123)">
<path d="M19.8912 0.00146625C31.153 0.00146625 40.31 7.78978 40.521 18.6296C40.6265 21.6812 38.4163 23.3663 35.9952 23.3663C33.6795 23.3663 31.6803 21.6835 31.5749 18.8406C31.4694 12.735 26.3131 8.20925 19.7858 8.20925C13.6803 8.20925 9.05143 12.5241 9.05143 18.4186C9.05143 24.8382 13.3663 27.6811 22.3124 30.9437C31.889 34.4171 40.6265 38.521 40.6265 50.7296C40.6265 61.3608 32.3108 69.885 20.735 69.885C9.36787 69.885 -0.000122188 61.8858 -0.000122188 51.046C-0.000122188 44.3101 3.26238 39.5733 6.41941 39.5733C9.15691 39.5733 10.8397 41.3617 10.8397 43.7827C10.8397 45.8874 9.05143 46.8343 9.05143 50.6241C9.05143 57.36 14.5241 61.6749 20.735 61.6749C27.26 61.6749 31.5749 57.1491 31.5749 51.6764C31.5749 44.9406 27.26 42.0999 18.3139 38.9405C8.31552 35.3663 -0.000122188 31.0491 -0.000122188 19.1569C-0.000122188 8.42259 8.62958 0.00146625 19.8912 0.00146625Z" fill="black"/>
<path d="M65.8241 69.8867C54.4569 69.8867 44.9858 60.7297 44.9858 49.1516C44.9858 37.154 54.5624 28.2079 66.1405 28.2079C78.5598 28.2079 87.2948 37.4704 87.2948 50.1008V65.4664C87.2948 68.0985 85.1903 69.8867 82.7696 69.8867C80.2432 69.8867 78.1379 68.0985 78.1379 65.4664V50.4149C78.1379 42.0993 73.4017 36.4157 65.9296 36.4157C59.2991 36.4157 54.0374 41.9938 54.0374 49.1516C54.0374 55.7821 59.1936 61.4657 65.721 61.4657C68.142 61.4657 69.1944 60.8352 70.6686 60.8352C72.668 60.8352 74.7726 62.518 74.7726 64.9391C74.7704 68.2016 70.8749 69.8867 65.8241 69.8867Z" fill="black"/>
<path d="M113.228 101.251C101.44 101.251 91.6523 92.8298 91.6523 81.8844C91.6523 78.2001 93.7568 76.5175 96.1782 76.5175C98.5988 76.5175 100.598 78.0972 100.704 81.1486C100.809 87.99 106.282 93.0408 113.123 93.0408C120.387 93.0408 125.121 88.4098 125.121 82.4093C125.121 75.5678 119.859 72.7274 110.913 69.8844C100.493 66.5164 91.6523 61.8852 91.6523 49.0461C91.6523 37.2571 100.704 28.2079 112.49 28.2079C124.383 28.2079 134.173 36.8375 134.173 48.2047C134.173 55.1516 131.332 60.5188 127.436 60.5188C124.805 60.5188 123.016 58.6251 123.016 56.3094C123.016 53.8883 125.121 52.836 125.121 48.5212C125.121 41.2579 119.437 36.418 112.596 36.418C105.965 36.418 100.704 41.4712 100.704 48.1016C100.704 55.5735 106.071 58.7329 114.912 61.679C125.121 65.0469 134.173 69.2563 134.173 81.5705C134.173 92.621 125.438 101.251 113.228 101.251Z" fill="black"/>
<path d="M160.004 69.8871C148.214 69.8871 138.532 60.6246 138.532 49.0488C138.532 37.4706 147.9 28.2105 159.476 28.2105C171.16 28.2105 180 36.3152 180 46.6301C180 50.6285 177.16 53.0496 172.529 53.0496H160.426C158.004 53.0496 156.216 51.3667 156.216 49.1542C156.216 47.0495 158.004 45.3644 160.426 45.3644H169.477C170.318 45.3644 170.951 44.9425 170.951 44.1011C170.951 41.0496 167.056 36.3128 159.795 36.3128C153.059 36.3128 147.586 42.1019 147.586 49.0488C147.586 56.1012 153.164 61.6793 160.111 61.6793C168.111 61.6793 170.742 56.9425 174.005 56.9425C176.742 56.9425 178.215 58.7308 178.215 60.7324C178.215 62.6261 176.951 64.3113 173.794 66.3105C170.632 68.3074 165.898 69.8871 160.004 69.8871Z" fill="black"/>
</g>
<defs>
<clipPath id="clip0_749_11123">
<rect width="179.827" height="101.422" fill="white" transform="scale(1.00096)"/>
</clipPath>
</defs>
</svg>
