<svg width="742" height="121" viewBox="0 0 742 121" fill="none" xmlns="http://www.w3.org/2000/svg">
<path fill-rule="evenodd" clip-rule="evenodd" d="M6.37876 90.4442C4.2463 89.1093 2.51808 86.7124 2.51808 83.5114C2.51808 78.9852 5.97449 75.5263 10.5022 75.5263C11.9626 75.5263 13.4331 75.9208 14.4943 76.5983C21.2808 80.8563 28.0724 82.9802 33.7976 82.9802C39.6543 82.9802 42.3124 80.8563 42.3124 77.6603V77.3873C42.3124 72.9928 35.3893 71.5262 27.5367 69.1293C17.5565 66.2013 6.24231 61.5337 6.24231 47.6828V47.4149C6.24231 32.8963 17.9557 24.7698 32.3373 24.7698C39.7859 24.7698 47.5071 26.7724 54.4302 30.2313C57.3559 31.7029 59.2206 34.3628 59.2206 37.832C59.2206 42.3629 55.6278 45.8218 51.0999 45.8218C49.6398 45.8218 48.6997 45.5539 47.3758 44.8864C41.6453 42.09 36.1878 40.3602 31.9381 40.3602C27.0061 40.3602 24.4744 42.4945 24.4744 45.2859V45.5539C24.4744 49.554 31.266 51.42 38.9872 54.0798C48.9676 57.4024 60.5495 62.2012 60.5495 75.2533V75.5263C60.5495 91.3749 48.6997 98.5609 33.2671 98.5609C24.4744 98.5609 15.0299 96.0374 6.37876 90.4442Z" fill="black"/>
<path fill-rule="evenodd" clip-rule="evenodd" d="M69.615 35.1672C69.615 29.5691 74.1375 25.0431 79.7213 25.0431C85.3156 25.0431 89.8381 29.5691 89.8381 35.1672V36.0976C94.7702 29.4427 101.557 24.5121 112.072 24.5121C128.708 24.5121 144.55 37.5591 144.55 61.3974V61.6707C144.55 85.5141 128.98 98.5659 112.072 98.5659C101.289 98.5659 94.6335 93.6405 89.8381 87.911V109.226C89.8381 114.819 85.3156 119.345 79.7213 119.345C74.1375 119.345 69.615 114.819 69.615 109.226V35.1672ZM124.316 61.6694V61.3961C124.316 49.5529 116.332 41.6894 106.883 41.6894C97.428 41.6894 89.5802 49.5529 89.5802 61.3961V61.6694C89.5802 73.5229 97.428 81.3864 106.883 81.3864C116.332 81.3864 124.316 73.6592 124.316 61.6694Z" fill="black"/>
<path fill-rule="evenodd" clip-rule="evenodd" d="M202.389 61.9407V61.6725C202.389 41.1617 218.888 24.5141 241.122 24.5141C263.21 24.5141 279.582 40.8934 279.582 61.3995V61.6725C279.582 82.1886 263.079 98.8359 240.854 98.8359C218.761 98.8359 202.389 82.4515 202.389 61.9407ZM259.622 61.9404V61.6721C259.622 51.1488 252.032 41.9604 240.854 41.9604C229.277 41.9604 222.355 50.8809 222.355 61.3992V61.6721C222.355 72.1958 229.939 81.3892 241.122 81.3892C252.704 81.3892 259.622 72.4587 259.622 61.9404Z" fill="black"/>
<path fill-rule="evenodd" clip-rule="evenodd" d="M353.991 87.9111C353.991 93.509 349.462 98.0299 343.878 98.0299C338.285 98.0299 333.758 93.509 333.758 87.9111V87.1171C329.098 93.1045 323.11 98.561 312.862 98.561C297.561 98.561 288.637 88.4369 288.637 72.0626V35.167C288.637 29.5691 293.165 25.0431 298.749 25.0431C304.342 25.0431 308.865 29.5691 308.865 35.167V65.6706C308.865 75.2535 313.393 80.189 321.114 80.189C328.83 80.189 333.758 75.2535 333.758 65.6706V35.167C333.758 29.5691 338.285 25.0431 343.878 25.0431C349.462 25.0431 353.991 29.5691 353.991 35.167V87.9111Z" fill="black"/>
<path fill-rule="evenodd" clip-rule="evenodd" d="M364.288 76.988V16.9217C364.288 11.3186 368.818 6.79261 374.401 6.79261C379.995 6.79261 384.517 11.3186 384.517 16.9217V25.8421H393.434C398.226 25.8421 402.087 29.7056 402.087 34.4996C402.087 39.2937 398.226 43.1571 393.434 43.1571H384.517V73.6607C384.517 78.3182 386.511 80.5885 391.041 80.5885C391.702 80.5885 393.035 80.4522 393.434 80.4522C397.964 80.4522 401.825 84.179 401.825 88.8415C401.825 92.442 399.424 95.365 396.634 96.4421C392.901 97.9087 389.442 98.4294 385.051 98.4294C372.672 98.4294 364.288 93.5141 364.288 76.988Z" fill="black"/>
<path fill-rule="evenodd" clip-rule="evenodd" d="M444.065 98.562C434.214 98.562 423.302 94.6982 415.58 88.4379L420.768 81.1207C428.225 86.7085 436.481 89.9095 444.592 89.9095C452.848 89.9095 458.831 85.6415 458.831 78.9866V78.7184C458.831 71.7956 450.716 69.1305 441.671 66.602C430.887 63.5326 418.911 59.8054 418.911 47.1481V46.8849C418.911 35.0314 428.762 27.168 442.339 27.168C450.716 27.168 460.04 30.096 467.091 34.7685L462.43 42.4906C456.041 38.364 448.722 35.8204 442.064 35.8204C433.949 35.8204 428.762 40.0884 428.762 45.8179V46.0808C428.762 52.6094 437.276 55.1429 446.462 57.9444C457.109 61.1353 468.554 65.267 468.554 77.6564V77.9193C468.554 90.9715 457.77 98.562 444.065 98.562Z" fill="black"/>
<path fill-rule="evenodd" clip-rule="evenodd" d="M512.332 98.8338C491.704 98.8338 476.656 82.5809 476.656 63.0056C476.656 43.4198 491.835 26.904 512.598 26.904C533.223 26.904 548.405 43.1569 548.405 62.7323C548.405 82.318 533.095 98.8338 512.332 98.8338ZM512.332 35.9565C497.419 35.9565 487.182 47.8201 487.182 62.7329C487.182 77.6609 498.097 89.641 512.598 89.641C527.501 89.641 537.889 77.7875 537.889 63.0059C537.889 47.9564 526.84 35.9565 512.332 35.9565Z" fill="black"/>
<path fill-rule="evenodd" clip-rule="evenodd" d="M591.243 98.8338C571.145 98.8338 555.976 82.4493 555.976 63.0056C555.976 43.4198 571.145 26.904 591.243 26.904C604.29 26.904 612.408 32.3655 618.798 39.1618L612.006 46.3529C606.55 40.6284 600.429 35.9558 591.112 35.9558C577.135 35.9558 566.492 47.8194 566.492 62.7323C566.492 77.7868 577.407 89.6403 591.777 89.6403C600.567 89.6403 607.345 85.2407 612.815 79.3799L619.328 85.509C612.408 93.2409 604.159 98.8338 591.243 98.8338Z" fill="black"/>
<path fill-rule="evenodd" clip-rule="evenodd" d="M629.827 13.321H641.544V2.00361H629.827V13.321ZM630.488 97.2407H640.745V28.3702H630.488V97.2407Z" fill="black"/>
<path fill-rule="evenodd" clip-rule="evenodd" d="M661.894 41.5574L658.835 33.1679C666.423 29.7039 673.877 27.4384 683.865 27.4384C702.624 27.4384 713.143 37.0315 713.143 55.1454V97.2393H703.285V86.8472C698.494 93.1079 690.517 98.6957 678.403 98.6957C665.624 98.6957 652.711 91.5047 652.711 77.1227C652.711 62.4727 664.694 54.7458 682.123 54.7458C690.909 54.7458 697.171 55.9394 703.285 57.6789V55.282C703.285 42.8873 695.694 36.5004 682.794 36.5004C674.673 36.5004 668.287 38.6243 661.894 41.5574ZM663.093 76.7228C663.093 85.5116 671.08 90.5787 680.394 90.5787C693.048 90.5787 703.426 82.8519 703.426 71.9236V65.2688C698.37 63.8073 691.577 62.3458 683.184 62.3458C670.281 62.3458 663.093 67.9336 663.093 76.7228Z" fill="black"/>
<path fill-rule="evenodd" clip-rule="evenodd" d="M729.228 97.2399H739.482V0H729.228V97.2399Z" fill="black"/>
<path fill-rule="evenodd" clip-rule="evenodd" d="M209.633 19.0509C209.633 19.0509 200.821 22.97 193.099 22.8284C185.641 22.6818 181.962 26.4644 181.962 26.4644L181.972 26.4947C178.788 28.7855 176.171 32.7451 174.235 37.0335V35.1674C174.235 29.5693 169.708 25.0434 164.119 25.0434C158.525 25.0434 154.007 29.5693 154.007 35.1674V87.9112C154.007 93.5145 158.525 98.0303 164.119 98.0303C169.708 98.0303 174.235 93.5145 174.235 87.9112V62.8742C175.691 52.1535 181.153 46.055 189.966 43.9918C190.472 43.8804 190.951 43.7236 191.427 43.5567C191.437 43.5517 191.437 43.5517 191.452 43.5466C191.467 43.5366 191.497 43.5366 191.518 43.5265C211.907 37.5999 209.633 19.0509 209.633 19.0509Z" fill="black"/>
</svg>
