<svg width="742" height="144" viewBox="0 0 742 144" fill="none" xmlns="http://www.w3.org/2000/svg">
<g clip-path="url(#clip0_749_11238)">
<path d="M719.965 64.4204V55.4644H709.303V42.5018H700.299V55.4644H691.691V64.4204H700.141V90.3457C700.141 97.8091 706.381 104.015 713.884 104.015H719.965V95.0594H713.884C711.277 95.0594 709.145 93.0168 709.145 90.3457V64.4204H719.965Z" fill="black"/>
<path d="M667.287 54.6009C677.001 54.6009 684.741 62.457 684.741 72.1201V86.7326C684.741 96.2385 676.843 104.252 667.287 104.252H663.811C654.255 104.252 646.357 96.3956 646.357 86.7326V72.1201C646.357 62.457 654.255 54.6009 663.811 54.6009H667.287ZM655.519 72.1201V86.7326C655.519 91.4462 659.389 95.1386 663.969 95.1386H667.444C672.183 95.1386 675.895 91.2891 675.895 86.7326V72.1201C675.895 67.4064 672.262 63.714 667.444 63.714H663.969C659.389 63.4783 655.519 67.3279 655.519 72.1201Z" fill="black"/>
<path d="M636.485 72.12V86.7325C636.485 96.3955 628.587 104.252 619.031 104.252H617.925C613.897 104.252 610.027 102.759 607.105 100.402V119.728H598.102V55.465H607.105V58.3717C610.027 56.0149 613.739 54.5222 617.925 54.5222H619.031C628.587 54.6008 636.485 62.4569 636.485 72.12ZM627.481 72.12C627.481 67.5634 623.848 63.7139 619.031 63.7139H615.556C610.975 63.7139 607.105 67.5634 607.105 72.12V86.7325C607.105 91.4461 610.975 95.1385 615.556 95.1385H619.031C623.769 95.1385 627.481 91.289 627.481 86.7325V72.12Z" fill="black"/>
<path d="M555.927 88.3039C556.875 92.1534 560.113 95.0602 564.378 95.0602H570.617C575.198 95.0602 579.068 91.2107 579.068 86.6541C579.068 81.3905 575.751 78.2481 571.012 76.4411L562.719 73.3772C554.98 70.4705 548.582 65.364 548.582 55.7009C548.582 46.0378 556.48 38.1817 566.037 38.1817H570.459C578.515 38.1817 585.465 43.681 587.361 51.3014L578.515 53.894C577.804 50.0445 574.329 47.2948 570.222 47.2948H565.8C561.061 47.2948 557.349 51.1443 557.349 55.7009C557.349 59.3147 558.613 62.0644 565.958 64.9712L574.25 68.2707C582.701 71.7274 587.992 77.9338 587.992 86.6541C587.992 96.3172 580.095 104.016 570.538 104.016H564.299C556.006 104.016 549.293 98.3598 547.24 90.8965L555.927 88.3039Z" fill="black"/>
<path d="M538.631 64.4204V55.4644H527.969V42.5018H518.965V55.4644H510.594V64.4204H519.044V90.3457C519.044 97.8091 525.284 104.015 532.787 104.015H538.868V95.0594H532.787C530.18 95.0594 528.048 93.0168 528.048 90.3457V64.4204H538.631Z" fill="black"/>
<path d="M502.538 72.1203V103.309H493.534V72.1203C493.534 67.4067 489.901 63.7143 485.084 63.7143H481.609C477.028 63.7143 473.158 67.5638 473.158 72.1203V103.309H464.155V39.0459H473.158V58.3721C476.08 56.0152 479.792 54.5226 483.978 54.5226H485.084C494.798 54.6011 502.538 62.4573 502.538 72.1203Z" fill="black"/>
<path d="M452.387 55.4655V102.917C452.387 112.58 444.647 120.279 434.933 120.279H431.3C423.007 120.279 416.294 114.622 414.398 107.159L423.007 104.566C423.955 108.18 427.193 111.166 431.3 111.166H434.933C439.513 111.166 443.383 107.316 443.383 102.76V97.1031C440.461 99.46 436.749 100.953 432.563 100.953H431.458C421.901 100.953 414.004 93.0965 414.004 83.4334V71.7278C414.004 62.0647 421.901 54.2085 431.458 54.2085H432.563C436.591 54.2085 440.461 55.7012 443.383 58.0581V55.1513L452.387 55.4655ZM443.462 83.7477V72.1206C443.462 67.4069 439.829 63.7145 435.012 63.7145H431.537C426.956 63.7145 423.086 67.564 423.086 72.1206V83.7477C423.086 88.3042 426.956 92.1538 431.537 92.1538H435.012C439.592 92.1538 443.462 88.3042 443.462 83.7477Z" fill="black"/>
<path d="M374.435 55.4652V86.6541C374.435 91.3678 378.068 95.0602 382.886 95.0602H386.361C391.1 95.0602 394.812 91.2106 394.812 86.6541V55.4652H403.815V86.6541C403.815 96.3171 395.918 104.016 386.361 104.016H382.886C373.172 104.016 365.432 96.16 365.432 86.497V55.4652H374.435Z" fill="black"/>
<path d="M337.395 54.6009C347.109 54.6009 354.849 62.457 354.849 72.1201V86.7326C354.849 96.2385 346.951 104.252 337.395 104.252H333.92C324.363 104.252 316.465 96.3956 316.465 86.7326V72.1201C316.465 62.457 324.363 54.6009 333.92 54.6009H337.395ZM325.469 72.1201V86.7326C325.469 91.4462 329.339 95.1386 333.92 95.1386H337.395C342.133 95.1386 345.845 91.2891 345.845 86.7326V72.1201C345.845 67.4064 342.212 63.714 337.395 63.714H333.92C329.339 63.4783 325.469 67.3279 325.469 72.1201Z" fill="black"/>
<path d="M306.04 72.1203V103.309H297.037V72.1203C297.037 67.4067 293.404 63.7143 288.586 63.7143H285.111C280.53 63.7143 276.66 67.5638 276.66 72.1203V103.309H267.657V39.0459H276.66V58.3721C279.583 56.0152 283.295 54.5226 287.48 54.5226H288.586C298.142 54.6011 306.04 62.4573 306.04 72.1203Z" fill="black"/>
<path d="M257.943 39.0459V48.002H239.778V103.152H230.774V48.2376H212.609V39.2816L257.943 39.0459Z" fill="black"/>
<path d="M126.365 143.454C136.31 143.454 144.372 135.434 144.372 125.542C144.372 115.649 136.31 107.63 126.365 107.63C116.42 107.63 108.358 115.649 108.358 125.542C108.358 135.434 116.42 143.454 126.365 143.454Z" fill="black"/>
<path d="M143.108 35.5883H-6.11154e-05V44.5443H49.1244V142.353H58.1279V44.5443H67.1314V142.353H75.898V44.5443H84.9015V142.353H93.905V44.5443H143.108V35.5883Z" fill="black"/>
<path d="M143.108 17.9127H-6.11154e-05V26.8688H143.108V17.9127Z" fill="black"/>
<path d="M143.108 0H0V8.95601H143.108V0Z" fill="black"/>
<path d="M734.576 104.251C738.604 104.251 741.921 100.952 741.921 96.9451C741.921 92.9384 738.604 89.6388 734.576 89.6388C730.39 89.6388 727.231 92.9384 727.231 96.9451C727.231 100.952 730.39 104.251 734.576 104.251ZM734.576 102.916C731.259 102.916 728.731 100.166 728.731 96.8665C728.731 93.5669 731.338 90.8173 734.576 90.8173C737.893 90.8173 740.42 93.5669 740.42 96.8665C740.42 100.166 737.893 102.916 734.576 102.916ZM733.312 101.109V97.8092H734.26L736.313 101.109H737.972L735.918 97.6521C737.024 97.2593 737.972 96.5523 737.972 95.2953C737.972 94.5882 737.577 93.8026 737.024 93.2527C736.471 92.8599 735.761 92.7027 734.813 92.7027H731.891V100.952H733.391V101.109H733.312ZM734.576 96.5523H733.312V93.9597H734.576C735.682 93.9597 736.392 94.3525 736.392 95.2167C736.471 96.1595 735.682 96.5523 734.576 96.5523Z" fill="black"/>
</g>
<defs>
<clipPath id="clip0_749_11238">
<rect width="741.026" height="143.265" fill="white" transform="scale(1.00131)"/>
</clipPath>
</defs>
</svg>
