<svg width="360" height="98" viewBox="0 0 360 98" fill="none" xmlns="http://www.w3.org/2000/svg">
<g clip-path="url(#clip0_749_11101)">
<path d="M95.898 19.8692C79.9887 19.8692 71.0822 30.264 68.5326 40.9655C65.6431 35.5125 63.5014 28.2191 61.8357 21.4369H39.8414V48.8724C39.8414 58.8242 35.3201 66.1857 26.4816 66.1857C17.6431 66.1857 12.5779 58.8242 12.5779 48.8724L12.6799 21.4369H0V48.8724C0 56.8815 2.58357 64.1409 7.30878 69.3212C12.17 74.672 18.7989 77.4667 26.4816 77.4667C41.779 77.4667 52.4533 65.7086 52.4533 48.8724V30.4344C54.051 36.5009 57.8584 48.1567 65.1331 58.3811L58.3343 97.1998H71.2181L75.7054 69.6961C77.1671 70.923 78.7309 72.0136 80.3966 73.002C84.7139 75.7285 89.6431 77.2622 94.7422 77.4326C94.7422 77.4326 95.5241 77.4667 95.932 77.4667C111.705 77.4667 124.249 65.2315 124.249 48.702C124.249 32.1725 111.671 19.8692 95.898 19.8692ZM95.898 66.1517C86.1416 66.1517 79.6827 58.5856 77.881 55.6546C80.1926 37.1143 86.9575 31.2524 95.898 31.2524C104.737 31.2524 111.603 38.3413 111.603 48.702C111.603 59.0627 104.737 66.1517 95.898 66.1517Z" fill="black"/>
<path d="M278.074 27.299V21.437H265.632V75.7286H278.244V54.4618C278.244 41.3746 279.434 31.9681 296.941 33.1951V20.7895C288.782 20.176 282.425 21.8801 278.074 27.299Z" fill="black"/>
<path d="M190.504 21.4371L181.36 59.4037L171.603 21.4371H155.558L145.768 59.4037L136.657 21.4371H123.875L137.881 75.7628H153.043L163.581 37.1827L174.017 75.7628H189.179L204 21.4371H190.504Z" fill="black"/>
<path d="M231.774 19.8692C215.898 19.8692 203.456 32.2066 203.456 48.702C203.456 65.1974 215.898 77.4326 231.774 77.4326C247.547 77.4326 260.091 65.1974 260.091 48.702C260.091 32.2066 247.581 19.8692 231.774 19.8692ZM231.774 66.1857C222.799 66.1857 216.068 59.0968 216.068 48.702C216.068 38.3072 222.833 31.2524 231.774 31.2524C240.612 31.2524 247.479 38.3413 247.479 48.702C247.479 59.0627 240.612 66.1857 231.774 66.1857Z" fill="black"/>
<path d="M315.025 49.0431H317.949L335.558 75.7628H349.802L329.541 46.1461C339.365 42.295 345.96 32.241 345.96 21.4372H333.382C333.382 33.1612 324.17 37.5917 315.025 37.5917V0H302.38V75.7628H314.991L315.025 49.0431Z" fill="black"/>
<path d="M349.53 0V1.0906H351.06V4.9418H352.249V1.0906H353.779V0H349.53ZM358.3 0L357.213 3.37405H357.179L356.125 0H354.459V4.9418H355.581V1.39734H355.615L356.669 4.9418H357.688L358.776 1.39734H358.81V4.9418H359.966V0H358.3Z" fill="black"/>
</g>
<defs>
<clipPath id="clip0_749_11101">
<rect width="359.654" height="97.1066" fill="white" transform="scale(1.00096)"/>
</clipPath>
</defs>
</svg>
