<svg width="360" height="60" viewBox="0 0 360 60" fill="none" xmlns="http://www.w3.org/2000/svg">
<g clip-path="url(#clip0_749_11075)">
<path fill-rule="evenodd" clip-rule="evenodd" d="M96.242 0L65.495 60H36.6742L49.4917 35.1111H48.899C38.3783 48.8889 22.5232 57.9259 3.05469e-05 60V35.4815C3.05469e-05 35.4815 14.4474 34.6667 22.8936 25.7037H3.05469e-05V0H25.709V21.1852H26.3017L36.8224 0H56.3079V21.037H56.9006L67.7176 0H96.242Z" fill="white"/>
<path d="M263.61 53.4073H271.908V5.85181H263.61V53.4073Z" fill="white"/>
<path fill-rule="evenodd" clip-rule="evenodd" d="M217.97 52.8888C219.749 53.6296 221.601 53.9999 223.453 53.9999C226.565 53.9999 229.306 53.2592 231.677 51.7777C234.122 50.2962 235.974 48.2222 237.308 45.5555C238.641 42.8888 239.308 39.9259 239.308 36.5185C239.308 33.1111 238.641 30.1481 237.234 27.4814C235.826 24.8148 233.974 22.8148 231.529 21.3333C229.084 19.8518 226.268 19.1111 223.157 19.1851C221.156 19.1851 219.304 19.5555 217.452 20.3703C215.6 21.1111 214.118 22.2222 212.932 23.6296C212.858 23.7037 212.784 23.8518 212.636 23.9259V5.85181H204.338V53.3333H212.562V48.8888C212.784 49.1851 213.006 49.4074 213.229 49.6296C214.562 51.037 216.118 52.1481 217.97 52.8888ZM226.417 45.1851C225.083 45.9999 223.527 46.4444 221.749 46.4444C220.045 46.4444 218.415 45.9999 217.007 45.1851C215.6 44.2962 214.414 43.1111 213.599 41.6296C212.784 40.1481 212.34 38.4444 212.34 36.5185C212.34 34.5925 212.71 32.8888 213.525 31.4074C214.34 29.9259 215.526 28.7407 216.933 27.8518C218.341 27.037 219.971 26.5925 221.675 26.5925C223.379 26.5925 224.935 26.9629 226.343 27.7777C227.75 28.5925 228.788 29.7777 229.528 31.2592C230.269 32.7407 230.64 34.4444 230.64 36.4444C230.64 38.3703 230.269 40.074 229.528 41.6296C228.862 43.1851 227.824 44.3703 226.417 45.1851Z" fill="white"/>
<path d="M108.244 8.74082H117.728L126.174 39.6297L135.213 8.74082H143.066L152.846 39.0371L160.996 8.74082H169.664L156.847 53.4075H148.697L138.769 23.7778L129.656 53.4075H121.432L108.244 8.74082Z" fill="white"/>
<path fill-rule="evenodd" clip-rule="evenodd" d="M183.593 54.1481C180.259 54.1481 177.296 53.4073 174.702 51.9999C172.035 50.5184 170.035 48.4444 168.479 45.7777C166.997 43.111 166.256 40.074 166.256 36.7407C166.256 33.4073 166.997 30.4444 168.553 27.7777C170.109 25.111 172.183 23.037 174.776 21.5555C177.444 20.074 180.333 19.3333 183.593 19.3333C187.223 19.3333 190.409 20.1481 193.151 21.7777C195.892 23.4073 197.966 25.7036 199.3 28.6666C200.708 31.6296 201.152 35.037 200.782 38.8147H174.776C174.851 40.3703 175.221 41.7036 175.888 42.9629C176.629 44.3703 177.74 45.4073 179.074 46.1481C180.481 46.8888 181.963 47.3333 183.667 47.3333C184.927 47.3333 186.186 47.111 187.298 46.6666C188.409 46.2221 189.372 45.6296 190.113 44.8888C190.928 44.1481 191.447 43.2592 191.817 42.3703H200.485C199.967 44.6666 198.93 46.7407 197.3 48.5925C195.744 50.3703 193.743 51.7777 191.372 52.8147C189.076 53.7036 186.483 54.2221 183.593 54.1481ZM175.962 30.3703C175.443 31.1851 175.147 32.1481 174.925 33.111H192.187C192.039 31.8518 191.669 30.7407 191.076 29.7777C190.335 28.5925 189.372 27.6296 188.113 27.037C186.853 26.3703 185.445 25.9999 183.889 25.9999C182.185 25.9999 180.704 26.3703 179.296 27.1851C177.888 27.9259 176.777 28.9629 175.962 30.3703Z" fill="white"/>
<path d="M245.458 19.9259C245.458 17.1851 246.051 14.8147 247.31 12.7407C248.57 10.5925 250.274 8.96289 252.496 7.77771C254.719 6.59252 257.386 5.99993 260.35 5.92586V13.3333C258.942 13.3333 257.757 13.6296 256.794 14.2222C255.83 14.7407 255.09 15.5555 254.571 16.5925C254.052 17.5555 253.83 18.6666 253.756 19.9259H260.202V26.9629H253.756V53.4073H245.458V26.9629H240.124V19.9259H245.458Z" fill="white"/>
<path fill-rule="evenodd" clip-rule="evenodd" d="M292.949 54.0743C289.541 54.0743 286.577 53.3336 283.91 51.8521C281.243 50.3706 279.168 48.2965 277.686 45.6299C276.205 42.9632 275.464 40.0003 275.464 36.5928C275.464 33.1854 276.205 30.2225 277.686 27.5558C279.168 24.8891 281.317 22.8151 283.91 21.3336C286.577 19.8521 289.615 19.1114 292.949 19.1114C296.357 19.1114 299.395 19.8521 302.062 21.3336C304.729 22.8151 306.878 24.8891 308.359 27.5558C309.841 30.2225 310.582 33.2595 310.656 36.5928C310.656 39.9262 309.841 42.9632 308.359 45.6299C306.878 48.2965 304.803 50.2965 302.136 51.8521C299.395 53.3336 296.357 54.0743 292.949 54.0743ZM292.949 46.5188C294.727 46.5188 296.283 46.1484 297.691 45.3336C299.098 44.5188 300.136 43.3336 300.876 41.8521C301.617 40.3706 301.988 38.6669 301.988 36.741C301.988 34.8151 301.617 33.1114 300.876 31.5558C300.136 30.0743 299.098 28.8891 297.691 28.0743C296.283 27.2595 294.727 26.8151 292.949 26.8151C291.171 26.8151 289.615 27.2595 288.281 28.0743C286.948 28.8891 285.91 30.0003 285.095 31.5558C284.355 33.0373 283.984 34.741 283.984 36.741C283.984 38.6669 284.355 40.3706 285.095 41.8521C285.836 43.3336 286.948 44.5188 288.281 45.3336C289.615 46.0743 291.171 46.5188 292.949 46.5188Z" fill="white"/>
<path d="M319.547 19.9261H310.286L320.288 53.3335H328.364L334.958 32.0002L342.07 53.3335H349.998L360 19.9261H351.628L345.997 40.7409L339.699 19.9261H331.624L325.4 41.1854L319.547 19.9261Z" fill="white"/>
</g>
<defs>
<clipPath id="clip0_749_11075">
<rect width="359.654" height="59.9424" fill="white" transform="scale(1.00096)"/>
</clipPath>
</defs>
</svg>
