<svg width="242" height="120" viewBox="0 0 242 120" fill="none" xmlns="http://www.w3.org/2000/svg">
<g clip-path="url(#clip0_749_11214)">
<path d="M72.6522 69.7501C72.84 70.1251 73.4031 70.1251 73.4031 69.7501L86.5444 35.6251C87.1076 33.9376 88.7971 33.0001 90.4867 33.0001H102.689C104.942 33.0001 107.007 34.8751 107.007 37.1251C107.007 37.6876 107.007 38.0626 106.819 38.6251L77.1578 118.313C77.1578 118.5 76.2191 119.25 75.4682 119.813C75.2805 120 74.905 120 74.5295 120C73.4032 119.625 72.2768 118.688 71.9013 117.563L56.1318 79.5001C55.5686 78.3751 54.2545 77.8126 53.1281 78.3751C52.7527 78.5626 52.1895 78.9376 52.0017 79.5001L32.1022 119.063C31.9144 119.25 31.7267 119.438 31.539 119.25C31.3512 119.25 31.3512 119.063 31.3512 119.063L0.375501 38.4376C-0.375426 36.1876 0.563232 33.7501 2.81601 33.0001C3.37921 32.8126 3.75467 32.6251 4.31787 32.6251H17.6468C19.3364 32.6251 21.026 33.7501 21.5892 35.2501L34.7304 69.5626C34.9181 69.9376 35.4813 69.9376 35.4813 69.5626L52.0017 33.7501C52.5649 32.6251 53.879 32.0626 55.0054 32.6251C55.5686 32.8126 55.9441 33.1876 56.1318 33.7501L72.6522 69.7501ZM223.401 0.375122C223.213 -0.187378 222.274 -0.187378 222.087 0.375122C221.336 4.12512 219.646 9.75012 216.642 12.7501C213.639 15.7501 208.007 17.4376 204.252 18.1876C203.689 18.3751 203.689 19.3126 204.252 19.5001C208.007 20.2501 213.639 21.9376 216.642 24.9376C220.585 28.8751 221.899 34.3126 222.462 37.5001C222.462 37.6876 223.213 37.6876 223.213 37.5001C223.964 34.1251 225.466 28.1251 228.657 24.9376C231.661 21.9376 237.293 20.2501 241.048 19.5001C241.611 19.3126 241.611 18.3751 241.048 18.1876C237.293 17.4376 231.661 15.7501 228.657 12.7501C225.841 9.75012 224.152 4.12512 223.401 0.375122ZM111.7 37.5001C111.7 35.2501 113.578 33.1876 116.018 33.1876H128.784C131.037 33.1876 133.102 35.0626 133.102 37.5001V115.688C133.102 117.938 131.225 120 128.784 120H116.018C113.765 120 111.7 118.125 111.7 115.688V37.5001ZM169.897 55.5001C170.085 54.9376 169.897 54.1876 169.334 54.0001C169.146 54.0001 168.959 53.8126 168.771 53.8126H143.615C141.362 53.8126 139.297 51.9376 139.297 49.5001V37.5001C139.297 35.2501 141.174 33.1876 143.615 33.1876H201.999C203.877 33.1876 206.317 34.6876 205.379 36.1876L171.587 99.1876C171.211 99.7501 171.587 100.5 172.15 100.688C172.338 100.688 172.525 100.875 172.713 100.875H203.501C205.754 100.875 207.819 102.75 207.819 105.188V115.688C207.819 117.938 205.942 120 203.501 120H141.55C139.485 120 139.109 117 140.048 115.125L169.897 55.5001Z" fill="black"/>
</g>
<defs>
<clipPath id="clip0_749_11214">
<rect width="241.611" height="120" fill="white"/>
</clipPath>
</defs>
</svg>
