<svg width="122" height="120" viewBox="0 0 122 120" fill="none" xmlns="http://www.w3.org/2000/svg">
<g clip-path="url(#clip0_749_11220)">
<path d="M60.7363 -0.000488281C27.1783 -0.000488281 0.00012207 26.808 0.00012207 59.9995C0.00012207 93.191 27.1783 120 60.7363 120C94.2943 120 121.473 93.191 121.473 59.9995C121.6 26.808 94.2943 -0.000488281 60.7363 -0.000488281Z" fill="black"/>
<path d="M44.5315 57.4462C45.6799 53.2335 49.5078 50.1696 53.8461 50.1696C58.312 50.1696 62.1399 53.1058 63.1607 57.4462H44.5315ZM66.6058 60.1271C67.2438 59.3611 67.499 58.3398 67.2438 57.3186C66.4782 53.4888 64.309 50.425 61.2467 48.3824C59.0776 46.9781 56.5256 46.3398 53.9737 46.3398C51.039 46.3398 48.3594 47.2335 46.0627 48.893C42.4899 51.4462 40.3208 55.659 40.3208 60.1271C40.3208 61.276 40.4484 62.2973 40.7036 63.4462C42.1072 68.8079 46.7007 72.893 52.3149 73.659C52.8253 73.7867 53.3357 73.7867 53.9737 73.7867C55.1221 73.7867 56.1428 73.659 57.2912 73.4037C58.6948 72.7654 59.9707 72.1271 61.2467 71.3611C62.3951 70.5952 63.5435 69.5739 64.6918 68.042L64.8194 67.9143C65.2022 67.4037 65.3298 66.7654 65.3298 66.2547C65.2022 65.7441 64.947 65.2335 64.5642 64.9781C64.1814 64.7228 63.6711 64.4675 63.2883 64.4675C62.9055 64.4675 62.2675 64.5952 61.6295 65.3611C61.5019 65.6164 61.2467 65.8718 60.9915 66.1271C60.2259 67.0207 59.3328 67.659 58.312 68.2973C56.9084 69.0632 55.3773 69.4462 53.8461 69.4462C48.8698 69.4462 45.9351 66.1271 44.6591 63.0632C44.5315 62.5526 44.4039 62.042 44.2763 61.5313V61.4037H63.4159C64.8194 61.4037 65.9678 60.893 66.6058 60.1271Z" fill="white"/>
<path d="M94.5495 56.1696C92.6356 56.1696 91.1044 57.7015 91.1044 59.6164C91.1044 61.5313 92.6356 63.0632 94.5495 63.0632C96.4635 63.0632 97.9947 61.5313 97.9947 59.6164C97.9947 57.8291 96.4635 56.1696 94.5495 56.1696Z" fill="white"/>
<path d="M81.7898 48.3824C81.7898 47.2335 80.8966 46.4675 79.7483 46.4675H79.2379C77.5791 46.4675 75.9203 46.9782 74.6444 47.9994C74.3892 47.2335 73.6236 46.5952 72.7304 46.5952C71.582 46.5952 70.8165 47.4888 70.8165 48.5101V71.2335C70.8165 72.2548 71.7096 73.1484 72.7304 73.1484C73.8788 73.1484 74.6444 72.2548 74.6444 71.2335V57.3186C74.6444 52.8505 75.0272 50.9356 78.9827 50.425C79.3655 50.425 79.6207 50.425 79.7483 50.425C81.0242 50.2973 81.7898 49.5314 81.7898 48.3824Z" fill="white"/>
<path d="M29.9854 59.8718L40.1932 49.659C40.576 49.276 40.8312 48.7654 40.8312 48.2547C40.8312 47.1058 39.938 46.3398 38.7896 46.3398C38.2792 46.3398 37.7689 46.5952 37.3861 46.9781L27.1783 57.1909L16.9705 46.9781C16.5877 46.5952 16.0774 46.4675 15.567 46.4675C14.4186 46.4675 13.653 47.3611 13.653 48.3824C13.653 48.893 13.9082 49.4037 14.291 49.7867L24.4988 59.9994L14.291 70.2122C13.9082 70.5952 13.653 71.1058 13.653 71.6164C13.653 72.6377 14.5462 73.5313 15.567 73.5313C16.0774 73.5313 16.5877 73.276 16.9705 73.0207L27.1783 62.8079L37.3861 72.893C37.7689 73.276 38.2792 73.5313 38.7896 73.5313C39.938 73.5313 40.8312 72.6377 40.8312 71.6164C40.8312 71.1058 40.576 70.5952 40.1932 70.2122L29.9854 59.8718Z" fill="white"/>
<path d="M94.5495 69.1909C89.3181 69.1909 84.9798 64.9781 84.9798 59.6164C84.9798 54.3823 89.3181 50.0419 94.5495 50.0419C99.781 50.0419 104.119 54.2547 104.119 59.6164C104.119 64.9781 99.781 69.1909 94.5495 69.1909ZM94.5495 46.0845C87.0213 46.0845 80.8967 52.2121 80.8967 59.6164C80.8967 67.1483 87.0213 73.1483 94.5495 73.1483C102.078 73.1483 108.202 67.0206 108.202 59.6164C108.202 52.2121 102.078 46.0845 94.5495 46.0845Z" fill="white"/>
</g>
<defs>
<clipPath id="clip0_749_11220">
<rect width="121.6" height="120" fill="white"/>
</clipPath>
</defs>
</svg>
